<?xml version="1.0" standalone="no"?>
<!DOCTYPE svg PUBLIC "-//W3C//DTD SVG 20010904//EN"
 "http://www.w3.org/TR/2001/REC-SVG-20010904/DTD/svg10.dtd">
<svg version="1.0" xmlns="http://www.w3.org/2000/svg"
 width="432.000000pt" height="288.000000pt" viewBox="0 0 432.000000 288.000000"
 preserveAspectRatio="xMidYMid meet">
<metadata>
Created by potrace 1.16, written by Peter Selinger 2001-2019
</metadata>
<g transform="translate(0.000000,288.000000) scale(0.100000,-0.100000)"
fill="#000000" stroke="none">
<path d="M530 2441 c0 -70 -4 -101 -12 -104 -10 -4 -10 -6 0 -6 18 -1 18 -327
0 -335 -10 -5 -10 -7 0 -12 9 -4 12 -48 12 -169 0 -147 -2 -164 -17 -168 -17
-4 -17 -5 0 -6 15 -1 17 -16 17 -170 0 -126 -3 -171 -12 -174 -10 -4 -10 -6 0
-6 18 -1 18 -327 0 -334 -10 -4 -10 -6 0 -6 9 -1 12 -42 12 -170 0 -153 -2
-170 -17 -174 -17 -4 -17 -5 -1 -6 15 -1 18 -16 20 -124 l3 -122 75 -3 c44 -2
78 -8 82 -15 6 -9 8 -9 8 1 0 18 416 18 423 0 4 -10 6 -10 6 0 1 9 51 12 215
12 162 0 216 -3 219 -12 4 -10 6 -10 6 0 1 9 50 12 210 12 158 0 211 -3 214
-12 4 -10 6 -10 6 0 1 18 427 18 434 0 4 -10 6 -10 6 0 1 9 50 12 210 12 191
0 210 -2 214 -17 4 -17 5 -17 6 0 1 16 18 17 210 17 158 0 211 -3 215 -12 5
-10 7 -10 12 0 4 9 57 12 214 12 190 0 209 -2 213 -17 4 -17 5 -17 6 0 1 15
12 17 76 17 l75 0 0 1095 0 1095 -1680 0 -1680 0 0 -99z m3350 -991 l0 -1080
-1665 0 -1665 0 0 1080 0 1080 1665 0 1665 0 0 -1080z"/>
<path d="M3415 2420 c-421 -35 -809 -82 -1105 -135 -74 -13 -182 -31 -240 -39
-58 -9 -197 -40 -309 -70 -189 -51 -207 -58 -242 -92 -21 -20 -118 -79 -218
-133 l-180 -96 -216 -273 c-119 -151 -215 -278 -213 -283 2 -5 82 91 178 213
284 360 247 324 421 417 83 45 153 80 154 79 2 -2 -69 -79 -157 -173 -108
-114 -167 -186 -183 -220 -123 -267 -421 -945 -416 -945 4 0 105 219 225 488
l217 487 188 200 c104 110 203 208 222 217 42 21 410 134 500 153 309 66 612
94 1539 145 l165 9 -195 -5 c-107 -3 -330 -14 -495 -24 -505 -33 -478 -32
-335 -10 158 24 466 56 773 80 131 10 241 21 244 24 10 9 -84 5 -322 -14z
m-1576 -244 c-6 -4 -275 -86 -285 -86 -46 0 219 86 275 89 8 1 12 -1 10 -3z"/>
<path d="M3485 1955 c-340 -34 -532 -61 -804 -112 l-243 -46 -223 -107 -222
-108 -229 -180 c-126 -99 -323 -262 -439 -362 -270 -235 -635 -570 -635 -584
0 -5 17 6 38 25 360 338 768 693 1062 924 214 168 216 169 430 273 l215 105
220 43 c248 49 578 95 860 119 105 9 199 20 210 25 26 11 28 11 -240 -15z"/>
<path d="M2091 798 c1 -24 3 -35 6 -25 2 9 11 17 18 17 23 0 29 22 10 37 -29
21 -35 16 -34 -29z m29 12 c0 -5 -4 -10 -10 -10 -5 0 -10 5 -10 10 0 6 5 10
10 10 6 0 10 -4 10 -10z"/>
<path d="M2373 800 c0 -25 2 -35 4 -22 2 12 2 32 0 45 -2 12 -4 2 -4 -23z"/>
<path d="M2403 800 c0 -25 2 -35 4 -22 2 12 2 32 0 45 -2 12 -4 2 -4 -23z"/>
<path d="M2450 830 c0 -5 5 -10 10 -10 6 0 10 -13 10 -30 0 -16 5 -30 10 -30
6 0 10 14 10 30 0 17 5 30 10 30 6 0 10 5 10 10 0 6 -13 10 -30 10 -16 0 -30
-4 -30 -10z"/>
<path d="M2790 795 c0 -27 4 -35 18 -34 10 0 12 3 5 6 -16 6 -17 40 -1 45 7 3
6 7 -5 11 -14 5 -17 0 -17 -28z"/>
<path d="M2150 810 c0 -6 6 -8 13 -4 6 4 4 -2 -6 -13 -19 -22 -14 -33 15 -33
15 0 19 6 16 27 -3 27 -38 48 -38 23z m30 -30 c0 -5 -5 -10 -11 -10 -5 0 -7 5
-4 10 3 6 8 10 11 10 2 0 4 -4 4 -10z"/>
<path d="M2243 801 c-5 -21 -8 -22 -18 -8 -9 13 -11 10 -11 -18 1 -19 4 -35 8
-35 10 0 40 72 33 79 -3 3 -9 -5 -12 -18z"/>
<path d="M2271 786 c1 -21 3 -25 6 -11 3 11 9 25 14 31 5 7 3 11 -6 11 -10 0
-15 -10 -14 -31z"/>
<path d="M2317 813 c-4 -3 -7 -17 -7 -30 0 -20 5 -24 22 -21 26 3 37 36 16 49
-16 11 -23 11 -31 2z m25 -35 c-15 -15 -26 -4 -18 18 5 13 9 15 18 6 9 -9 9
-15 0 -24z"/>
<path d="M2529 818 c0 -2 -3 -15 -5 -30 -4 -24 -1 -28 21 -28 27 0 35 26 13
48 -11 11 -27 16 -29 10z m21 -38 c0 -5 -5 -10 -11 -10 -5 0 -7 5 -4 10 3 6 8
10 11 10 2 0 4 -4 4 -10z"/>
<path d="M2583 792 c0 -22 5 -27 25 -29 16 -1 21 2 14 9 -6 6 -8 18 -5 27 4 9
3 13 -2 9 -4 -4 -13 -3 -20 2 -8 7 -12 2 -12 -18z"/>
<path d="M2682 811 c-22 -14 -10 -46 18 -48 25 -3 25 -3 3 7 -27 11 -29 25 -5
39 9 6 13 10 7 11 -5 0 -16 -4 -23 -9z"/>
<path d="M2731 788 c-1 -24 3 -28 24 -28 20 0 25 5 25 25 0 14 -4 25 -10 25
-5 0 -10 -9 -10 -20 0 -27 -18 -25 -23 3 -4 19 -4 18 -6 -5z"/>
<path d="M1853 793 c32 -2 81 -2 110 0 29 2 3 3 -58 3 -60 0 -84 -1 -52 -3z"/>
<path d="M2090 660 c0 -37 2 -40 28 -39 23 2 24 2 5 6 -26 5 -31 23 -8 23 21
0 19 18 -2 23 -13 3 -12 5 5 6 28 1 19 21 -9 21 -16 0 -19 -7 -19 -40z"/>
<path d="M2410 690 c0 -5 -6 -10 -14 -10 -16 0 -31 -34 -21 -50 3 -5 15 -10
26 -10 16 0 19 7 19 40 0 22 -2 40 -5 40 -3 0 -5 -4 -5 -10z m0 -46 c0 -14
-12 -19 -23 -8 -9 9 4 35 14 28 5 -3 9 -12 9 -20z"/>
<path d="M2538 683 c0 -10 -2 -24 -2 -32 -1 -19 -26 -27 -26 -9 0 8 6 20 13
27 10 11 9 13 -3 9 -8 -3 -16 -17 -18 -31 -3 -23 0 -27 22 -27 24 0 26 4 26
40 0 40 -9 56 -12 23z"/>
<path d="M2640 665 c0 -24 -5 -35 -15 -35 -10 0 -15 10 -15 30 0 17 -4 30 -10
30 -11 0 -13 -30 -4 -54 3 -9 17 -16 30 -16 21 0 24 4 24 40 0 22 -2 40 -5 40
-3 0 -5 -16 -5 -35z"/>
<path d="M2953 660 c0 -25 2 -35 4 -22 2 12 2 32 0 45 -2 12 -4 2 -4 -23z"/>
<path d="M3397 693 c-4 -3 -7 -22 -7 -40 0 -31 2 -34 27 -31 14 2 28 10 31 18
4 12 2 13 -9 3 -16 -16 -29 -17 -29 -3 0 6 7 10 15 10 9 0 18 7 22 16 9 23
-32 45 -50 27z"/>
<path d="M3657 693 c-4 -3 -7 -22 -6 -42 l1 -36 7 31 c4 17 11 36 15 42 8 13
-6 17 -17 5z"/>
<path d="M2210 655 c0 -27 4 -35 18 -34 10 0 12 3 5 6 -16 6 -17 40 -1 45 7 3
6 7 -5 11 -14 5 -17 0 -17 -28z"/>
<path d="M3322 659 c4 -42 23 -49 22 -7 0 18 -6 34 -13 36 -9 3 -11 -6 -9 -29z"/>
<path d="M3712 659 c4 -42 23 -49 22 -7 0 18 -6 34 -13 36 -9 3 -11 -6 -9 -29z"/>
<path d="M2153 652 c0 -22 5 -27 25 -29 16 -1 21 2 14 9 -6 6 -8 18 -5 27 4 9
3 13 -2 9 -4 -4 -13 -3 -20 2 -8 7 -12 2 -12 -18z"/>
<path d="M2257 674 c-4 -4 -7 -18 -7 -31 0 -19 5 -23 28 -22 l27 1 -25 8 c-25
8 -25 8 -2 9 17 1 22 6 20 18 -3 19 -29 29 -41 17z m28 -14 c3 -5 -1 -10 -10
-10 -9 0 -13 5 -10 10 3 6 8 10 10 10 2 0 7 -4 10 -10z"/>
<path d="M2311 646 c1 -27 2 -28 7 -8 4 13 12 23 17 23 6 0 13 -10 17 -23 6
-19 7 -18 5 7 -2 23 -7 30 -24 31 -19 1 -23 -4 -22 -30z"/>
<path d="M2441 666 c-18 -21 -2 -46 28 -45 l26 1 -25 7 -25 7 24 7 c21 5 22 8
11 21 -15 20 -24 20 -39 2z m29 -6 c0 -5 -5 -10 -11 -10 -5 0 -7 5 -4 10 3 6
8 10 11 10 2 0 4 -4 4 -10z"/>
<path d="M2671 646 c1 -21 3 -25 6 -11 8 34 23 41 23 12 0 -15 5 -27 10 -27
12 0 13 30 2 46 -4 6 -15 11 -24 11 -14 0 -18 -8 -17 -31z"/>
<path d="M2737 674 c-4 -4 -7 -18 -7 -31 0 -19 5 -23 28 -22 l27 1 -25 8 c-25
8 -25 8 -2 9 17 1 22 6 20 18 -3 19 -29 29 -41 17z m28 -14 c3 -5 -1 -10 -10
-10 -9 0 -13 5 -10 10 3 6 8 10 10 10 2 0 7 -4 10 -10z"/>
<path d="M2803 673 c-15 -5 -18 -53 -3 -53 6 0 10 12 10 26 0 31 20 22 21 -9
0 -14 2 -17 6 -7 14 43 16 44 23 15 l8 -30 1 31 c1 27 -2 31 -26 31 -16 0 -34
-2 -40 -4z"/>
<path d="M2891 636 c0 -22 3 -35 6 -28 2 6 14 12 24 12 31 0 22 55 -8 56 -20
1 -23 -3 -22 -40z m39 8 c0 -16 -16 -19 -25 -4 -8 13 4 32 16 25 5 -4 9 -13 9
-21z"/>
<path d="M2984 666 c-9 -24 3 -46 26 -46 17 0 21 5 18 27 -3 31 -34 44 -44 19z
m36 -22 c0 -8 -7 -14 -15 -14 -15 0 -21 21 -9 33 10 9 24 -2 24 -19z"/>
<path d="M3041 672 c-1 -7 4 -23 10 -34 9 -16 8 -23 -2 -29 -10 -6 -10 -9 -2
-9 7 0 19 13 28 30 18 35 20 65 1 32 l-12 -23 -12 23 c-6 13 -11 17 -11 10z"/>
<path d="M3113 673 c-15 -5 -18 -53 -3 -53 6 0 10 12 10 26 0 31 20 22 21 -9
0 -14 2 -17 6 -7 14 43 16 44 23 15 l8 -30 1 31 c1 27 -2 31 -26 31 -16 0 -34
-2 -40 -4z"/>
<path d="M3207 674 c-4 -4 -7 -18 -7 -31 0 -19 5 -23 28 -22 l27 1 -25 8 c-25
8 -25 8 -2 9 17 1 22 6 20 18 -3 19 -29 29 -41 17z m28 -14 c3 -5 -1 -10 -10
-10 -9 0 -13 5 -10 10 3 6 8 10 10 10 2 0 7 -4 10 -10z"/>
<path d="M3261 646 c1 -27 2 -28 7 -8 4 13 12 23 17 23 6 0 13 -10 17 -23 6
-19 7 -18 5 7 -2 23 -7 30 -24 31 -19 1 -23 -4 -22 -30z"/>
<path d="M3472 671 c-22 -14 -10 -46 18 -48 23 -2 23 -2 5 6 -18 9 -18 10 -2
10 12 1 17 7 15 18 -4 20 -18 26 -36 14z m23 -11 c3 -5 -1 -10 -10 -10 -9 0
-13 5 -10 10 3 6 8 10 10 10 2 0 7 -4 10 -10z"/>
<path d="M3533 673 c-15 -6 -18 -53 -3 -53 6 0 10 9 10 19 0 31 18 34 23 4 l5
-28 -2 29 c-1 30 -11 38 -33 29z"/>
<path d="M3591 666 c-18 -21 -2 -46 28 -45 l26 1 -25 7 -25 7 24 7 c21 5 22 8
11 21 -15 20 -24 20 -39 2z m29 -6 c0 -5 -5 -10 -11 -10 -5 0 -7 5 -4 10 3 6
8 10 11 10 2 0 4 -4 4 -10z"/>
<path d="M3754 668 c-4 -6 1 -17 10 -24 16 -12 16 -13 -1 -17 -14 -4 -14 -5 5
-6 13 -1 22 5 22 14 0 8 -4 15 -10 15 -5 0 -10 5 -10 11 0 5 5 7 10 4 6 -3 10
-1 10 4 0 15 -27 14 -36 -1z"/>
<path d="M3682 645 c0 -16 2 -22 5 -12 2 9 2 23 0 30 -3 6 -5 -1 -5 -18z"/>
<path d="M1853 653 c32 -2 81 -2 110 0 29 2 3 3 -58 3 -60 0 -84 -1 -52 -3z"/>
<path d="M2090 536 c-9 -12 -7 -17 9 -28 26 -16 27 -25 4 -31 -14 -4 -13 -5 4
-6 33 -2 39 19 12 40 l-24 19 25 0 c20 0 22 2 10 10 -20 13 -26 12 -40 -4z"/>
<path d="M2193 510 c0 -25 2 -35 4 -22 2 12 2 32 0 45 -2 12 -4 2 -4 -23z"/>
<path d="M2383 510 c0 -25 2 -35 4 -22 2 12 2 32 0 45 -2 12 -4 2 -4 -23z"/>
<path d="M2566 534 c-29 -28 -15 -65 23 -63 23 2 24 2 4 6 -31 6 -33 53 -2 53
11 0 17 5 14 10 -9 14 -21 12 -39 -6z"/>
<path d="M2626 543 c-10 -10 -7 -73 4 -73 6 0 10 9 10 19 0 32 20 35 21 4 2
-25 2 -25 6 -5 5 24 -28 67 -41 55z"/>
<path d="M2807 544 c-11 -11 -8 -74 3 -74 6 0 10 5 10 11 0 8 6 7 18 -2 15
-13 16 -12 4 3 -7 9 -17 29 -20 43 -4 14 -11 23 -15 19z"/>
<path d="M2152 509 c4 -42 23 -49 22 -7 0 18 -6 34 -13 36 -9 3 -11 -6 -9 -29z"/>
<path d="M2221 498 c1 -21 3 -26 6 -13 8 34 23 41 23 12 0 -15 5 -27 10 -27 6
0 10 12 10 27 0 29 14 22 23 -12 3 -12 5 -8 4 10 -2 27 -6 30 -39 33 -37 2
-38 1 -37 -30z"/>
<path d="M2474 518 c-4 -6 1 -17 10 -24 16 -12 16 -13 -1 -17 -14 -4 -14 -5 5
-6 26 -1 30 24 5 33 -15 6 -15 8 -3 16 9 6 10 10 3 10 -6 0 -15 -5 -19 -12z"/>
<path d="M2691 516 c-18 -21 -2 -46 28 -45 l26 1 -25 7 -25 7 24 7 c21 5 22 8
11 21 -15 20 -24 20 -39 2z m29 -6 c0 -5 -5 -10 -11 -10 -5 0 -7 5 -4 10 3 6
8 10 11 10 2 0 4 -4 4 -10z"/>
<path d="M2757 523 c-4 -3 -7 -17 -7 -30 0 -18 5 -23 23 -22 17 1 18 2 4 6
-20 5 -19 40 1 36 7 -2 12 2 12 7 0 11 -23 14 -33 3z"/>
<path d="M2835 520 c-3 -5 -1 -10 4 -10 6 0 11 5 11 10 0 6 -2 10 -4 10 -3 0
-8 -4 -11 -10z"/>
<path d="M2312 498 c2 -15 11 -24 26 -26 19 -3 22 1 21 25 -2 23 -2 24 -6 6
-5 -28 -23 -30 -23 -3 0 11 -5 20 -11 20 -6 0 -9 -10 -7 -22z"/>
<path d="M2411 498 c-1 -24 3 -28 24 -28 20 0 25 5 25 25 0 14 -4 25 -10 25
-5 0 -10 -9 -10 -20 0 -27 -18 -25 -23 3 -4 19 -4 18 -6 -5z"/>
<path d="M1843 503 c31 -2 83 -2 115 0 31 2 5 3 -58 3 -63 0 -89 -1 -57 -3z"/>
<path d="M330 2370 c-10 -6 -11 -10 -2 -10 6 0 12 -11 12 -24 0 -13 -6 -27
-12 -29 -7 -3 1 -6 17 -6 17 0 25 3 18 7 -6 4 -13 22 -15 39 -2 26 -6 31 -18
23z"/>
<path d="M419 2369 c-11 -7 -9 -9 9 -9 28 0 28 -8 0 -37 l-21 -23 29 0 c20 0
25 3 15 9 -9 6 -10 11 -2 15 15 10 14 43 -2 49 -8 3 -20 1 -28 -4z"/>
<path d="M330 2020 c-10 -6 -11 -10 -2 -10 6 0 12 -11 12 -24 0 -13 -6 -27
-12 -29 -7 -3 1 -6 17 -6 17 0 25 3 18 7 -6 4 -13 22 -15 39 -2 26 -6 31 -18
23z"/>
<path d="M420 2015 c-17 -21 -4 -65 20 -65 23 0 35 33 20 60 -13 24 -23 25
-40 5z m30 -30 c0 -14 -4 -25 -10 -25 -5 0 -10 11 -10 25 0 14 5 25 10 25 6 0
10 -11 10 -25z"/>
<path d="M333 1682 c-12 -7 -16 -25 -14 -55 2 -30 45 -18 49 14 3 28 -17 52
-35 41z m17 -37 c0 -14 -4 -25 -10 -25 -5 0 -10 11 -10 25 0 14 5 25 10 25 6
0 10 -11 10 -25z"/>
<path d="M424 1678 c-16 -23 -11 -62 10 -66 27 -6 37 10 28 43 -9 32 -25 42
-38 23z m26 -12 c0 -3 -4 -8 -10 -11 -5 -3 -10 -1 -10 4 0 6 5 11 10 11 6 0
10 -2 10 -4z m0 -36 c0 -5 -4 -10 -10 -10 -5 0 -10 5 -10 10 0 6 5 10 10 10 6
0 10 -4 10 -10z"/>
<path d="M333 1332 c-12 -7 -16 -25 -14 -55 2 -30 45 -18 49 14 3 28 -17 52
-35 41z m17 -37 c0 -14 -4 -25 -10 -25 -5 0 -10 11 -10 25 0 14 5 25 10 25 6
0 10 -11 10 -25z"/>
<path d="M426 1324 c-18 -17 -19 -24 -10 -48 7 -17 39 -22 48 -7 10 15 -5 41
-23 42 -13 0 -12 2 3 8 13 5 16 10 9 14 -6 4 -19 0 -27 -9z m24 -39 c0 -8 -4
-15 -10 -15 -5 0 -10 7 -10 15 0 8 5 15 10 15 6 0 10 -7 10 -15z"/>
<path d="M333 982 c-12 -7 -16 -25 -14 -55 2 -30 45 -18 49 14 3 28 -17 52
-35 41z m17 -37 c0 -14 -4 -25 -10 -25 -5 0 -10 11 -10 25 0 14 5 25 10 25 6
0 10 -11 10 -25z"/>
<path d="M426 959 c-20 -34 -20 -34 12 -43 23 -8 26 -1 22 39 -3 34 -15 36
-34 4z"/>
<path d="M333 642 c-12 -7 -16 -25 -14 -55 2 -30 45 -18 49 14 3 28 -17 52
-35 41z m17 -37 c0 -14 -4 -25 -10 -25 -5 0 -10 11 -10 25 0 14 5 25 10 25 6
0 10 -11 10 -25z"/>
<path d="M419 639 c-11 -7 -9 -9 9 -9 28 0 28 -8 0 -37 l-21 -23 29 0 c20 0
25 3 15 9 -9 6 -10 11 -2 15 15 10 14 43 -2 49 -8 3 -20 1 -28 -4z"/>
<path d="M680 280 c-10 -6 -11 -10 -2 -10 6 0 12 -11 12 -24 0 -13 -6 -27 -12
-29 -7 -3 1 -6 17 -6 17 0 25 3 18 7 -6 4 -13 22 -15 39 -2 26 -6 31 -18 23z"/>
<path d="M1105 280 c-3 -6 4 -10 17 -10 19 0 20 -2 8 -11 -11 -8 -12 -12 -2
-16 19 -8 14 -21 -10 -26 -20 -4 -19 -4 5 -6 24 -1 27 2 27 33 0 22 -6 36 -16
40 -21 8 -22 8 -29 -4z"/>
<path d="M1540 270 c0 -11 7 -20 15 -20 21 0 19 -28 -2 -33 -14 -4 -13 -5 4
-6 12 0 24 3 27 8 9 14 -4 39 -22 44 -15 4 -15 5 1 6 24 1 22 21 -3 21 -13 0
-20 -7 -20 -20z"/>
<path d="M1975 280 c-3 -5 1 -10 9 -10 19 0 19 -1 6 -34 -5 -14 -6 -26 -1 -26
8 0 31 52 31 71 0 12 -37 11 -45 -1z"/>
<path d="M2410 271 c-8 -16 -6 -23 11 -34 20 -14 20 -15 2 -20 -15 -4 -14 -5
4 -6 27 -1 42 41 23 64 -17 20 -27 19 -40 -4z m30 -11 c0 -5 -4 -10 -10 -10
-5 0 -10 5 -10 10 0 6 5 10 10 10 6 0 10 -4 10 -10z"/>
<path d="M2820 280 c-10 -6 -11 -10 -2 -10 6 0 12 -11 12 -24 0 -13 -6 -27
-12 -29 -7 -3 1 -6 17 -6 17 0 25 3 18 7 -6 4 -13 22 -15 39 -2 26 -6 31 -18
23z"/>
<path d="M2880 279 c-10 -6 -11 -9 -2 -9 6 0 12 -11 12 -24 0 -13 -6 -27 -12
-29 -7 -3 -2 -6 12 -6 24 -1 26 2 22 34 -5 40 -12 48 -32 34z"/>
<path d="M3315 280 c-3 -5 2 -10 12 -10 15 0 16 -2 3 -11 -11 -8 -12 -12 -2
-16 17 -7 15 -21 -5 -27 -11 -3 -7 -4 7 -3 19 2 25 8 25 27 0 40 -25 65 -40
40z"/>
<path d="M3690 280 c-10 -6 -11 -10 -2 -10 6 0 12 -11 12 -24 0 -13 -6 -27
-12 -29 -7 -3 1 -6 17 -6 17 0 25 3 18 7 -6 4 -13 22 -15 39 -2 26 -6 31 -18
23z"/>
<path d="M3747 283 c-13 -13 -7 -31 13 -36 27 -7 25 -25 -2 -30 l-23 -4 23 -2
c30 -1 41 28 17 45 -10 8 -13 14 -7 14 7 0 12 5 12 10 0 11 -23 14 -33 3z"/>
<path d="M3255 245 c0 -25 4 -35 15 -35 12 0 15 8 12 35 -2 19 -9 35 -16 35
-6 0 -11 -15 -11 -35z"/>
<path d="M2243 138 c-23 -11 -33 -58 -13 -58 6 0 10 9 10 19 0 28 18 36 22 9
5 -34 23 -31 22 4 -1 36 -9 41 -41 26z"/>
<path d="M2035 121 c-7 -24 1 -41 20 -41 7 0 16 -6 19 -12 3 -7 4 5 3 27 -2
45 -30 62 -42 26z m35 -17 c0 -14 -12 -19 -23 -8 -9 9 4 35 14 28 5 -3 9 -12
9 -20z"/>
<path d="M2101 113 c-1 -29 2 -33 24 -33 21 0 25 5 24 28 0 26 -1 26 -9 5 -13
-31 -28 -29 -33 5 -4 25 -4 25 -6 -5z"/>
<path d="M2180 131 c12 -9 12 -11 -3 -17 -27 -10 -21 -34 9 -34 22 0 25 4 22
27 -2 19 -10 29 -23 31 -16 2 -17 1 -5 -7z m15 -31 c-3 -5 -11 -10 -16 -10 -6
0 -7 5 -4 10 3 6 11 10 16 10 6 0 7 -4 4 -10z"/>
<path d="M2310 125 c-17 -21 -5 -45 22 -44 21 0 21 1 4 8 -19 7 -19 8 2 13 15
4 22 2 22 -8 0 -8 5 -14 10 -14 6 0 10 8 10 18 0 10 5 23 12 30 15 15 3 16
-22 2 -13 -7 -21 -7 -25 0 -9 14 -21 12 -35 -5z m30 -5 c0 -5 -4 -10 -10 -10
-5 0 -10 5 -10 10 0 6 5 10 10 10 6 0 10 -4 10 -10z"/>
</g>
</svg>
