<?xml version="1.0" standalone="no"?>
<!DOCTYPE svg PUBLIC "-//W3C//DTD SVG 20010904//EN"
 "http://www.w3.org/TR/2001/REC-SVG-20010904/DTD/svg10.dtd">
<svg version="1.0" xmlns="http://www.w3.org/2000/svg"
 width="432.000000pt" height="288.000000pt" viewBox="0 0 432.000000 288.000000"
 preserveAspectRatio="xMidYMid meet">
<metadata>
Created by potrace 1.16, written by Peter Selinger 2001-2019
</metadata>
<g transform="translate(0.000000,288.000000) scale(0.100000,-0.100000)"
fill="#000000" stroke="none">
<path d="M530 2411 c0 -94 -3 -131 -12 -134 -10 -4 -10 -6 0 -6 18 -1 18 -437
0 -444 -10 -4 -10 -6 0 -6 9 -1 12 -53 12 -225 0 -170 -3 -226 -12 -229 -10
-4 -10 -6 0 -6 9 -1 12 -52 12 -220 0 -166 -3 -221 -12 -224 -10 -4 -10 -6 0
-6 18 -1 18 -437 0 -444 -10 -4 -10 -7 -1 -14 6 -5 13 -29 15 -53 l3 -45 75
-3 c44 -2 78 -8 82 -15 6 -9 8 -9 8 1 0 9 26 12 94 12 82 0 95 -2 99 -18 4
-16 5 -16 6 1 1 15 13 17 95 17 66 0 96 -4 99 -12 4 -10 6 -10 6 0 1 17 187
17 195 0 5 -11 7 -11 12 0 4 8 34 12 99 12 81 0 94 -2 98 -18 4 -16 5 -16 6 1
1 15 13 17 95 17 66 0 96 -4 99 -12 4 -10 6 -10 6 0 1 9 27 12 95 12 66 0 96
-4 100 -12 5 -10 7 -10 12 0 8 17 190 17 197 0 4 -10 6 -10 6 0 1 9 27 12 95
12 82 0 95 -2 99 -17 4 -17 5 -17 6 0 1 15 13 17 95 17 66 0 96 -4 99 -12 4
-10 6 -10 6 0 1 9 28 12 100 12 70 0 101 -4 104 -12 4 -10 6 -10 6 0 1 9 27
12 95 12 82 0 95 -2 99 -17 4 -17 5 -17 6 0 1 15 13 17 95 17 66 0 96 -4 99
-12 4 -10 6 -10 6 0 1 9 27 12 95 12 66 0 96 -4 100 -12 5 -10 7 -10 12 0 8
17 190 17 197 0 4 -10 6 -10 6 0 1 9 27 12 95 12 82 0 95 -2 99 -17 4 -17 5
-17 6 0 1 15 12 17 76 17 l75 0 0 1095 0 1095 -1680 0 -1680 0 0 -129z m3350
-961 l0 -1080 -1665 0 -1665 0 0 1080 0 1080 1665 0 1665 0 0 -1080z"/>
<path d="M890 2432 c0 -5 7 -13 16 -16 10 -4 14 -1 12 6 -5 15 -28 23 -28 10z"/>
<path d="M2513 2405 c0 -22 2 -30 4 -17 2 12 2 30 0 40 -3 9 -5 -1 -4 -23z"/>
<path d="M2553 2423 c-15 -6 -18 -53 -3 -53 6 0 10 9 10 19 0 31 18 34 23 4
l5 -28 -2 29 c-1 30 -11 38 -33 29z"/>
<path d="M2611 2416 c-16 -19 -3 -46 23 -45 17 1 18 2 3 6 -20 5 -19 40 1 36
7 -2 12 2 12 7 0 15 -26 12 -39 -4z"/>
<path d="M2664 2416 c-9 -24 3 -46 26 -46 17 0 21 5 18 27 -3 31 -34 44 -44
19z m36 -22 c0 -8 -7 -14 -15 -14 -15 0 -21 21 -9 33 10 9 24 -2 24 -19z"/>
<path d="M2733 2423 c-15 -5 -18 -53 -3 -53 6 0 10 9 10 20 0 28 20 25 21 -2
0 -14 2 -17 6 -8 14 43 16 44 23 15 l8 -30 1 31 c1 27 -2 31 -26 31 -16 0 -34
-2 -40 -4z"/>
<path d="M2832 2421 c-22 -14 -10 -46 18 -48 23 -2 23 -2 5 6 -18 9 -18 10 -2
10 12 1 17 7 15 18 -4 20 -18 26 -36 14z m23 -11 c3 -5 -1 -10 -10 -10 -9 0
-13 5 -10 10 3 6 8 10 10 10 2 0 7 -4 10 -10z"/>
<path d="M950 2400 c0 -5 9 -14 20 -20 11 -6 20 -7 20 -3 0 5 -9 14 -20 21
-11 7 -20 8 -20 2z"/>
<path d="M2273 2403 c32 -2 81 -2 110 0 29 2 3 3 -58 3 -60 0 -84 -1 -52 -3z"/>
<path d="M878 2365 c-3 -14 -1 -25 3 -25 5 0 9 11 9 25 0 14 -2 25 -4 25 -2 0
-6 -11 -8 -25z"/>
<path d="M1024 2345 c11 -8 25 -15 30 -15 6 0 2 7 -8 15 -11 8 -25 15 -30 15
-6 0 -2 -7 8 -15z"/>
<path d="M1093 2295 c7 -13 14 -20 15 -14 5 14 -6 39 -17 39 -5 0 -4 -11 2
-25z"/>
<path d="M871 2303 c0 -6 -4 -20 -7 -30 -5 -14 -4 -15 5 -7 7 7 11 20 8 30 -3
11 -5 14 -6 7z"/>
<path d="M2920 2275 c-8 -21 1 -75 12 -75 2 0 3 23 3 50 0 28 -1 50 -3 50 -1
0 -7 -11 -12 -25z"/>
<path d="M3027 2294 c-4 -4 -7 -21 -8 -38 l-1 -31 -14 33 c-18 40 -29 41 -43
1 -14 -42 -14 -41 10 -27 17 10 23 10 26 1 6 -18 68 -16 83 2 12 15 5 55 -10
55 -5 0 -15 2 -22 5 -8 3 -17 2 -21 -1z m43 -39 c0 -16 -6 -25 -15 -25 -9 0
-15 9 -15 25 0 16 6 25 15 25 9 0 15 -9 15 -25z m-80 5 c0 -5 -5 -10 -11 -10
-5 0 -7 5 -4 10 3 6 8 10 11 10 2 0 4 -4 4 -10z"/>
<path d="M3196 2284 c-9 -25 -7 -64 4 -64 6 0 10 11 10 25 0 34 20 32 21 -2 1
-28 1 -28 8 3 4 17 11 36 15 42 4 7 3 12 -3 12 -5 0 -13 -4 -16 -10 -3 -5 -11
-10 -16 -10 -6 0 -7 5 -4 10 3 6 2 10 -3 10 -6 0 -13 -7 -16 -16z"/>
<path d="M3475 2248 c0 -46 1 -47 11 -22 6 15 9 36 6 46 -9 36 -17 25 -17 -24z"/>
<path d="M2513 2255 c0 -22 2 -30 4 -17 2 12 2 30 0 40 -3 9 -5 -1 -4 -23z"/>
<path d="M3380 2255 c0 -27 4 -35 18 -34 10 0 12 3 5 6 -16 6 -17 40 -1 45 7
3 6 7 -5 11 -14 5 -17 0 -17 -28z"/>
<path d="M2553 2273 c-15 -6 -18 -53 -3 -53 6 0 10 9 10 19 0 31 18 34 23 4
l5 -28 -2 29 c-1 30 -11 38 -33 29z"/>
<path d="M2611 2266 c-16 -19 -3 -46 23 -45 17 1 18 2 3 6 -20 5 -19 40 1 36
7 -2 12 2 12 7 0 15 -26 12 -39 -4z"/>
<path d="M2664 2266 c-9 -24 3 -46 26 -46 17 0 21 5 18 27 -3 31 -34 44 -44
19z m36 -22 c0 -8 -7 -14 -15 -14 -15 0 -21 21 -9 33 10 9 24 -2 24 -19z"/>
<path d="M2733 2273 c-15 -5 -18 -53 -3 -53 6 0 10 9 10 20 0 28 20 25 21 -2
0 -14 2 -17 6 -8 14 43 16 44 23 15 l8 -30 1 31 c1 27 -2 31 -26 31 -16 0 -34
-2 -40 -4z"/>
<path d="M2832 2271 c-22 -14 -10 -46 18 -48 23 -2 23 -2 5 6 -18 9 -18 10 -2
10 12 1 17 7 15 18 -4 20 -18 26 -36 14z m23 -11 c3 -5 -1 -10 -10 -10 -9 0
-13 5 -10 10 3 6 8 10 10 10 2 0 7 -4 10 -10z"/>
<path d="M3142 2271 c-22 -14 -10 -46 18 -48 23 -2 23 -2 5 6 -18 9 -18 10 -2
10 12 1 17 7 15 18 -4 20 -18 26 -36 14z m23 -11 c3 -5 -1 -10 -10 -10 -9 0
-13 5 -10 10 3 6 8 10 10 10 2 0 7 -4 10 -10z"/>
<path d="M3272 2271 c-22 -14 -10 -46 18 -48 23 -2 23 -2 5 6 -18 9 -18 10 -2
10 12 1 17 7 15 18 -4 20 -18 26 -36 14z m23 -11 c3 -5 -1 -10 -10 -10 -9 0
-13 5 -10 10 3 6 8 10 10 10 2 0 7 -4 10 -10z"/>
<path d="M3330 2265 c-17 -21 -5 -45 22 -44 18 1 19 2 5 6 -20 5 -18 40 2 35
7 -1 10 2 6 8 -9 14 -20 13 -35 -5z"/>
<path d="M3424 2268 c-4 -6 1 -17 10 -24 16 -12 16 -13 -1 -17 -14 -4 -14 -5
5 -6 26 -1 30 24 5 33 -15 6 -15 8 -3 16 9 6 10 10 3 10 -6 0 -15 -5 -19 -12z"/>
<path d="M2243 2253 c9 -2 23 -2 30 0 6 3 -1 5 -18 5 -16 0 -22 -2 -12 -5z"/>
<path d="M2323 2253 c9 -2 23 -2 30 0 6 3 -1 5 -18 5 -16 0 -22 -2 -12 -5z"/>
<path d="M2398 2253 c6 -2 18 -2 25 0 6 3 1 5 -13 5 -14 0 -19 -2 -12 -5z"/>
<path d="M1120 2244 c0 -5 7 -19 15 -30 8 -10 15 -14 15 -8 0 5 -7 19 -15 30
-8 10 -15 14 -15 8z"/>
<path d="M857 2223 c-4 -3 -7 -16 -6 -27 0 -19 1 -19 10 3 10 24 8 36 -4 24z"/>
<path d="M1150 2174 c0 -5 7 -19 15 -30 8 -10 15 -14 15 -8 0 5 -7 19 -15 30
-8 10 -15 14 -15 8z"/>
<path d="M840 2130 c0 -16 2 -30 4 -30 2 0 6 14 8 30 3 17 1 30 -4 30 -4 0 -8
-13 -8 -30z"/>
<path d="M2526 2144 c-29 -28 -15 -65 23 -63 23 2 24 2 4 6 -31 6 -33 53 -2
53 11 0 17 5 14 10 -9 14 -21 12 -39 -6z"/>
<path d="M2982 2119 c4 -42 23 -49 22 -7 0 18 -6 34 -13 36 -9 3 -11 -6 -9
-29z"/>
<path d="M2592 2131 c-19 -12 -11 -45 12 -49 24 -5 37 17 25 40 -11 20 -18 22
-37 9z m28 -27 c0 -8 -4 -14 -10 -14 -5 0 -10 9 -10 21 0 11 5 17 10 14 6 -3
10 -13 10 -21z"/>
<path d="M2651 2106 c1 -21 3 -25 6 -11 8 34 23 41 23 12 0 -15 5 -27 10 -27
12 0 13 30 2 46 -4 6 -15 11 -24 11 -14 0 -18 -8 -17 -31z"/>
<path d="M2714 2128 c-4 -6 1 -17 10 -24 16 -12 16 -13 -1 -17 -14 -4 -14 -5
5 -6 26 -1 30 24 5 33 -15 6 -15 8 -3 16 9 6 10 10 3 10 -6 0 -15 -5 -19 -12z"/>
<path d="M2800 2115 c0 -31 -17 -33 -30 -2 -10 22 -10 22 -7 -3 1 -17 9 -26
25 -28 19 -3 22 1 22 27 0 17 -2 31 -5 31 -3 0 -5 -11 -5 -25z"/>
<path d="M2833 2133 c-15 -5 -18 -53 -3 -53 6 0 10 9 10 20 0 28 20 25 21 -2
0 -14 2 -17 6 -8 14 43 16 44 23 15 l8 -30 1 31 c1 27 -2 31 -26 31 -16 0 -34
-2 -40 -4z"/>
<path d="M2933 2133 c-15 -6 -18 -73 -3 -73 6 0 10 5 10 10 0 6 7 10 16 10 11
0 14 8 12 27 -3 27 -14 35 -35 26z m27 -29 c0 -8 -4 -14 -10 -14 -5 0 -10 9
-10 21 0 11 5 17 10 14 6 -3 10 -13 10 -21z"/>
<path d="M3054 2126 c-9 -24 3 -46 26 -46 17 0 21 5 18 27 -3 31 -34 44 -44
19z m36 -22 c0 -8 -7 -14 -15 -14 -15 0 -21 21 -9 33 10 9 24 -2 24 -19z"/>
<path d="M3123 2133 c-15 -6 -18 -53 -3 -53 6 0 10 9 10 19 0 31 18 34 23 4
l5 -28 -2 29 c-1 30 -11 38 -33 29z"/>
<path d="M3022 2105 c0 -16 2 -22 5 -12 2 9 2 23 0 30 -3 6 -5 -1 -5 -18z"/>
<path d="M2273 2113 c32 -2 81 -2 110 0 29 2 3 3 -58 3 -60 0 -84 -1 -52 -3z"/>
<path d="M886 2083 c-3 -15 -17 -102 -31 -193 -21 -133 -30 -170 -48 -189 -18
-20 -19 -23 -4 -18 21 8 21 12 1 -115 -10 -64 -24 -116 -37 -138 l-22 -35 -7
30 -7 30 2 -31 c1 -20 -8 -44 -26 -68 -28 -36 -28 -36 -5 -33 14 3 24 12 26
24 2 11 14 31 28 44 l26 24 -6 -25 c-9 -38 -86 -531 -86 -548 0 -45 13 21 55
283 25 160 48 298 51 307 8 26 93 128 107 128 7 0 53 -18 102 -40 l90 -41 100
-162 c134 -217 221 -435 265 -666 17 -86 33 -166 35 -178 l5 -23 1120 0 c1010
0 1120 2 1120 16 0 11 -6 14 -20 9 -11 -4 -20 -2 -20 4 0 14 -43 14 -57 0 -8
-8 -13 -8 -17 0 -9 14 -53 14 -61 1 -4 -7 -11 -8 -18 -1 -7 5 -65 8 -130 7
-65 -1 -120 1 -123 6 -3 4 -15 8 -27 7 -21 0 -21 -1 -2 -10 27 -12 -990 -4
-1165 10 -291 23 -427 51 -459 94 -8 12 -21 17 -34 13 -21 -5 -90 25 -103 45
-3 6 -2 14 3 18 7 4 7 15 1 31 -6 17 -11 21 -17 12 -19 -31 -99 300 -86 358 4
17 1 33 -8 41 -7 8 -14 21 -14 29 -1 8 -17 98 -37 200 l-37 185 -106 210 -107
210 -94 80 c-52 44 -98 81 -103 83 -4 2 -10 -10 -13 -25z m177 -132 c28 -26
66 -89 134 -226 87 -174 97 -200 120 -310 13 -66 21 -129 19 -139 -3 -11 1
-34 9 -50 14 -33 69 -305 63 -312 -3 -2 -26 54 -53 124 -36 92 -77 171 -150
289 l-100 162 -105 47 -105 46 -48 -53 c-45 -51 -47 -53 -42 -24 3 17 12 72
20 122 12 71 21 99 40 119 26 28 26 46 0 24 -12 -10 -15 -10 -15 5 0 16 36
246 46 293 4 22 8 21 67 -29 34 -29 79 -69 100 -88z m544 -1371 c94 -45 160
-64 253 -74 14 -1 33 -6 43 -10 9 -5 28 -5 41 -2 14 3 27 2 31 -4 3 -5 39 -8
80 -6 41 1 75 -1 75 -5 0 -4 10 -10 23 -12 12 -2 -128 -5 -310 -6 l-333 -1 -4
23 c-37 169 -44 231 -21 180 12 -28 31 -41 122 -83z m603 -110 c0 -5 -4 -10
-10 -10 -5 0 -10 5 -10 10 0 6 5 10 10 10 6 0 10 -4 10 -10z m80 0 c0 -5 -4
-10 -10 -10 -5 0 -10 5 -10 10 0 6 5 10 10 10 6 0 10 -4 10 -10z m80 0 c0 -5
-4 -10 -10 -10 -5 0 -10 5 -10 10 0 6 5 10 10 10 6 0 10 -4 10 -10z"/>
<path d="M920 1775 c14 -7 27 -11 30 -9 6 7 -22 24 -40 23 -9 0 -5 -6 10 -14z"/>
<path d="M980 1750 c8 -5 24 -9 35 -9 l20 0 -20 9 c-11 5 -27 9 -35 9 -13 1
-13 0 0 -9z"/>
<path d="M1050 1730 c0 -9 39 -25 46 -18 2 3 -7 10 -21 16 -14 6 -25 7 -25 2z"/>
<path d="M1110 1684 c0 -5 7 -19 15 -30 8 -10 15 -14 15 -8 0 5 -7 19 -15 30
-8 10 -15 14 -15 8z"/>
<path d="M1150 1614 c0 -5 7 -19 15 -30 8 -10 15 -14 15 -8 0 5 -7 19 -15 30
-8 10 -15 14 -15 8z"/>
<path d="M1190 1544 c0 -5 7 -18 15 -28 12 -16 15 -17 15 -4 0 8 -7 21 -15 28
-8 7 -15 9 -15 4z"/>
<path d="M1230 1474 c0 -5 7 -18 15 -28 12 -16 15 -17 15 -4 0 8 -7 21 -15 28
-8 7 -15 9 -15 4z"/>
<path d="M1280 1389 c7 -11 14 -19 16 -16 7 7 -7 37 -17 37 -6 0 -5 -9 1 -21z"/>
<path d="M1312 1315 c6 -14 13 -23 16 -21 7 7 -9 46 -18 46 -5 0 -4 -11 2 -25z"/>
<path d="M1187 2090 c3 -11 10 -23 16 -27 7 -4 8 0 4 11 -4 10 -7 22 -7 27 0
5 -4 9 -9 9 -5 0 -7 -9 -4 -20z"/>
<path d="M832 2055 c0 -16 2 -22 5 -12 2 9 2 23 0 30 -3 6 -5 -1 -5 -18z"/>
<path d="M1221 2030 c-1 -18 16 -46 23 -40 2 3 -2 16 -9 30 -8 15 -14 19 -14
10z"/>
<path d="M2526 1994 c-29 -28 -15 -65 23 -63 23 2 24 2 4 6 -31 6 -33 53 -2
53 11 0 17 5 14 10 -9 14 -21 12 -39 -6z"/>
<path d="M3216 1994 c-8 -22 -8 -62 2 -67 4 -3 7 15 8 39 1 48 -1 52 -10 28z"/>
<path d="M3256 1976 c-20 -48 -20 -49 4 -34 17 11 22 10 30 -2 18 -28 18 -4 1
35 l-18 40 -17 -39z"/>
<path d="M3320 1969 c0 -38 1 -40 28 -37 34 4 44 45 16 65 -32 23 -44 16 -44
-28z m45 -4 c0 -11 -8 -21 -17 -23 -14 -3 -18 3 -18 23 0 20 4 26 18 23 9 -2
17 -12 17 -23z"/>
<path d="M3493 1998 c-5 -7 -6 -26 -2 -43 5 -25 7 -26 8 -7 0 13 6 32 11 43
12 21 -2 26 -17 7z"/>
<path d="M3526 1994 c-9 -25 -7 -64 4 -64 6 0 10 10 11 23 0 12 2 30 4 40 4
21 -11 23 -19 1z"/>
<path d="M3772 1966 c1 -29 4 -42 9 -34 11 17 11 49 0 67 -6 10 -9 -1 -9 -33z"/>
<path d="M821 1993 c0 -6 -4 -20 -7 -30 -5 -14 -4 -15 5 -7 7 7 11 20 8 30 -3
11 -5 14 -6 7z"/>
<path d="M2982 1969 c4 -42 23 -49 22 -7 0 18 -6 34 -13 36 -9 3 -11 -6 -9
-29z"/>
<path d="M3672 1969 c4 -42 23 -49 22 -7 0 18 -6 34 -13 36 -9 3 -11 -6 -9
-29z"/>
<path d="M2592 1981 c-19 -12 -11 -45 12 -49 24 -5 37 17 25 40 -11 20 -18 22
-37 9z m28 -27 c0 -8 -4 -14 -10 -14 -5 0 -10 9 -10 21 0 11 5 17 10 14 6 -3
10 -13 10 -21z"/>
<path d="M2651 1956 c1 -21 3 -25 6 -11 8 34 23 41 23 12 0 -15 5 -27 10 -27
12 0 13 30 2 46 -4 6 -15 11 -24 11 -14 0 -18 -8 -17 -31z"/>
<path d="M2714 1978 c-4 -6 1 -17 10 -24 16 -12 16 -13 -1 -17 -14 -4 -14 -5
5 -6 26 -1 30 24 5 33 -15 6 -15 8 -3 16 9 6 10 10 3 10 -6 0 -15 -5 -19 -12z"/>
<path d="M2800 1965 c0 -31 -17 -33 -30 -2 -10 22 -10 22 -7 -3 1 -17 9 -26
25 -28 19 -3 22 1 22 27 0 17 -2 31 -5 31 -3 0 -5 -11 -5 -25z"/>
<path d="M2833 1983 c-15 -5 -18 -53 -3 -53 6 0 10 9 10 20 0 28 20 25 21 -2
0 -14 2 -17 6 -8 14 43 16 44 23 15 l8 -30 1 31 c1 27 -2 31 -26 31 -16 0 -34
-2 -40 -4z"/>
<path d="M2933 1983 c-15 -6 -18 -73 -3 -73 6 0 10 5 10 10 0 6 7 10 16 10 11
0 14 8 12 27 -3 27 -14 35 -35 26z m27 -29 c0 -8 -4 -14 -10 -14 -5 0 -10 9
-10 21 0 11 5 17 10 14 6 -3 10 -13 10 -21z"/>
<path d="M3054 1976 c-9 -24 3 -46 26 -46 17 0 21 5 18 27 -3 31 -34 44 -44
19z m36 -22 c0 -8 -7 -14 -15 -14 -15 0 -21 21 -9 33 10 9 24 -2 24 -19z"/>
<path d="M3123 1983 c-15 -6 -18 -53 -3 -53 6 0 10 9 10 19 0 31 18 34 23 4
l5 -28 -2 29 c-1 30 -11 38 -33 29z"/>
<path d="M3430 1975 c-17 -21 -5 -45 22 -44 21 0 21 1 4 8 -19 7 -18 8 4 14
20 5 21 8 10 21 -16 20 -24 20 -40 1z m30 -5 c0 -5 -4 -10 -10 -10 -5 0 -10 5
-10 10 0 6 5 10 10 10 6 0 10 -4 10 -10z"/>
<path d="M3561 1976 c-18 -21 -2 -46 28 -45 l26 1 -25 7 -25 7 24 7 c21 5 22
8 11 21 -15 20 -24 20 -39 2z m29 -6 c0 -5 -5 -10 -11 -10 -5 0 -7 5 -4 10 3
6 8 10 11 10 2 0 4 -4 4 -10z"/>
<path d="M3627 1983 c-4 -3 -7 -17 -7 -30 0 -18 5 -23 23 -22 17 1 18 2 4 6
-20 5 -19 40 1 36 7 -2 12 2 12 7 0 11 -23 14 -33 3z"/>
<path d="M3714 1978 c-4 -6 1 -17 10 -24 16 -12 16 -13 -1 -17 -14 -4 -14 -5
5 -6 13 -1 22 5 22 14 0 8 -4 15 -10 15 -5 0 -10 5 -10 11 0 5 5 7 10 4 6 -3
10 -1 10 4 0 15 -27 14 -36 -1z"/>
<path d="M3022 1955 c0 -16 2 -22 5 -12 2 9 2 23 0 30 -3 6 -5 -1 -5 -18z"/>
<path d="M2243 1963 c9 -2 23 -2 30 0 6 3 -1 5 -18 5 -16 0 -22 -2 -12 -5z"/>
<path d="M2323 1963 c9 -2 23 -2 30 0 6 3 -1 5 -18 5 -16 0 -22 -2 -12 -5z"/>
<path d="M2398 1963 c6 -2 18 -2 25 0 6 3 1 5 -13 5 -14 0 -19 -2 -12 -5z"/>
<path d="M1250 1954 c0 -5 7 -19 15 -30 8 -10 15 -14 15 -8 0 5 -7 19 -15 30
-8 10 -15 14 -15 8z"/>
<path d="M807 1913 c-4 -3 -7 -16 -6 -27 0 -19 1 -19 10 3 10 24 8 36 -4 24z"/>
<path d="M1287 1872 c3 -12 9 -25 14 -28 14 -8 11 10 -6 32 -13 18 -14 18 -8
-4z"/>
<path d="M790 1815 c0 -14 2 -25 4 -25 2 0 6 11 8 25 3 14 1 25 -3 25 -5 0 -9
-11 -9 -25z"/>
<path d="M1308 1785 c2 -14 6 -25 8 -25 2 0 4 11 4 25 0 14 -4 25 -9 25 -4 0
-6 -11 -3 -25z"/>
<path d="M778 1735 c-3 -14 -1 -25 3 -25 5 0 9 11 9 25 0 14 -2 25 -4 25 -2 0
-6 -11 -8 -25z"/>
<path d="M1320 1710 c0 -16 4 -30 8 -30 5 0 7 14 4 30 -2 17 -6 30 -8 30 -2 0
-4 -13 -4 -30z"/>
<path d="M757 1649 c-21 -37 -19 -43 6 -24 11 8 17 23 15 34 -3 19 -5 17 -21
-10z"/>
<path d="M1330 1643 c0 -12 5 -25 10 -28 13 -8 13 15 0 35 -8 12 -10 11 -10
-7z"/>
<path d="M757 1596 c-4 -10 -7 -25 -6 -34 0 -11 4 -9 10 7 5 13 8 29 6 35 -2
5 -6 2 -10 -8z"/>
<path d="M705 1580 c-10 -11 -16 -22 -13 -25 3 -3 13 4 23 15 10 11 16 22 13
25 -3 3 -13 -4 -23 -15z"/>
<path d="M1348 1555 c2 -14 6 -25 8 -25 2 0 4 11 4 25 0 14 -4 25 -9 25 -4 0
-6 -11 -3 -25z"/>
<path d="M740 1505 c0 -14 2 -25 4 -25 2 0 6 11 8 25 3 14 1 25 -3 25 -5 0 -9
-11 -9 -25z"/>
<path d="M1360 1475 c0 -14 4 -25 9 -25 4 0 6 11 3 25 -2 14 -6 25 -8 25 -2 0
-4 -11 -4 -25z"/>
<path d="M1370 1410 c0 -8 5 -22 10 -30 9 -13 10 -13 10 0 0 8 -5 22 -10 30
-9 13 -10 13 -10 0z"/>
<path d="M1392 1315 c0 -16 2 -22 5 -12 2 9 2 23 0 30 -3 6 -5 -1 -5 -18z"/>
<path d="M707 1283 c-4 -3 -7 -16 -6 -27 0 -19 1 -19 10 3 10 24 8 36 -4 24z"/>
<path d="M1400 1247 c0 -14 5 -29 10 -32 7 -4 8 3 4 22 -9 38 -14 42 -14 10z"/>
<path d="M690 1185 c0 -14 2 -25 4 -25 2 0 6 11 8 25 3 14 1 25 -3 25 -5 0 -9
-11 -9 -25z"/>
<path d="M1410 1180 c0 -8 5 -22 10 -30 9 -13 10 -13 10 0 0 8 -5 22 -10 30
-9 13 -10 13 -10 0z"/>
<path d="M1432 1085 c0 -16 2 -22 5 -12 2 9 2 23 0 30 -3 6 -5 -1 -5 -18z"/>
<path d="M1417 1020 c3 -11 15 -26 26 -31 17 -10 19 -9 14 6 -4 9 -7 21 -7 26
0 6 -4 7 -10 4 -5 -3 -10 -1 -10 4 0 6 -4 11 -9 11 -5 0 -7 -9 -4 -20z"/>
<path d="M1440 966 c0 -4 7 -23 15 -43 8 -19 15 -49 15 -65 0 -29 41 -78 64
-78 6 0 -2 12 -18 26 -16 14 -31 38 -32 52 -6 54 -17 92 -30 103 -8 6 -14 9
-14 5z"/>
<path d="M1481 785 c0 -11 4 -27 9 -35 9 -13 10 -13 9 0 0 8 -4 24 -9 35 l-9
20 0 -20z"/>
<path d="M1565 750 c10 -11 23 -20 28 -20 6 0 2 9 -8 20 -10 11 -23 20 -28 20
-6 0 -2 -9 8 -20z"/>
<path d="M1620 713 c0 -13 29 -38 35 -31 3 3 -4 13 -15 23 -11 10 -20 13 -20
8z"/>
<path d="M1680 661 c0 -10 30 -24 37 -17 3 2 -5 9 -16 16 -12 6 -21 7 -21 1z"/>
<path d="M1555 640 c10 -11 20 -18 23 -15 7 6 -18 35 -31 35 -5 0 -2 -9 8 -20z"/>
<path d="M1750 630 c0 -4 11 -10 25 -12 14 -3 25 -2 25 2 0 4 -11 10 -25 12
-14 3 -25 2 -25 -2z"/>
<path d="M1835 600 c11 -5 27 -9 35 -9 13 -1 13 0 0 9 -8 5 -24 9 -35 9 l-20
0 20 -9z"/>
<path d="M1915 580 c28 -12 37 -12 30 0 -3 6 -16 10 -28 9 -21 0 -21 -1 -2 -9z"/>
<path d="M1985 570 c3 -5 16 -10 28 -9 21 0 21 1 2 9 -28 12 -37 12 -30 0z"/>
<path d="M2073 553 c9 -2 23 -2 30 0 6 3 -1 5 -18 5 -16 0 -22 -2 -12 -5z"/>
<path d="M2153 543 c9 -2 23 -2 30 0 6 3 -1 5 -18 5 -16 0 -22 -2 -12 -5z"/>
<path d="M2233 533 c9 -2 23 -2 30 0 6 3 -1 5 -18 5 -16 0 -22 -2 -12 -5z"/>
<path d="M2313 523 c9 -2 23 -2 30 0 6 3 -1 5 -18 5 -16 0 -22 -2 -12 -5z"/>
<path d="M2395 520 c28 -12 37 -12 30 0 -3 6 -16 10 -28 9 -21 0 -21 -1 -2 -9z"/>
<path d="M2463 513 c9 -2 25 -2 35 0 9 3 1 5 -18 5 -19 0 -27 -2 -17 -5z"/>
<path d="M2543 513 c9 -2 23 -2 30 0 6 3 -1 5 -18 5 -16 0 -22 -2 -12 -5z"/>
<path d="M2623 503 c9 -2 23 -2 30 0 6 3 -1 5 -18 5 -16 0 -22 -2 -12 -5z"/>
<path d="M2703 503 c9 -2 23 -2 30 0 6 3 -1 5 -18 5 -16 0 -22 -2 -12 -5z"/>
<path d="M2783 503 c9 -2 23 -2 30 0 6 3 -1 5 -18 5 -16 0 -22 -2 -12 -5z"/>
<path d="M2863 503 c9 -2 23 -2 30 0 6 3 -1 5 -18 5 -16 0 -22 -2 -12 -5z"/>
<path d="M2943 493 c9 -2 23 -2 30 0 6 3 -1 5 -18 5 -16 0 -22 -2 -12 -5z"/>
<path d="M3023 493 c9 -2 23 -2 30 0 6 3 -1 5 -18 5 -16 0 -22 -2 -12 -5z"/>
<path d="M3103 493 c9 -2 23 -2 30 0 6 3 -1 5 -18 5 -16 0 -22 -2 -12 -5z"/>
<path d="M3183 493 c9 -2 23 -2 30 0 6 3 -1 5 -18 5 -16 0 -22 -2 -12 -5z"/>
<path d="M333 2312 c-12 -7 -16 -25 -14 -55 2 -30 45 -18 49 14 3 28 -17 52
-35 41z m17 -37 c0 -14 -4 -25 -10 -25 -5 0 -10 11 -10 25 0 14 5 25 10 25 6
0 10 -11 10 -25z"/>
<path d="M424 2308 c-16 -23 -11 -62 10 -66 27 -6 37 10 28 43 -9 32 -25 42
-38 23z m26 -12 c0 -3 -4 -8 -10 -11 -5 -3 -10 -1 -10 4 0 6 5 11 10 11 6 0
10 -2 10 -4z m0 -36 c0 -5 -4 -10 -10 -10 -5 0 -10 5 -10 10 0 6 5 10 10 10 6
0 10 -4 10 -10z"/>
<path d="M204 2272 c-6 -4 -11 -15 -11 -24 0 -14 8 -18 31 -17 21 1 25 3 11 6
-34 8 -41 23 -12 23 15 0 27 5 27 10 0 12 -30 13 -46 2z"/>
<path d="M200 2205 c-10 -11 -10 -18 -1 -29 10 -12 8 -15 -11 -19 -13 -2 -3
-5 22 -5 32 -1 41 1 30 8 -11 7 -12 10 -2 10 19 0 11 44 -9 48 -9 1 -22 -4
-29 -13z m40 -15 c0 -5 -6 -10 -14 -10 -8 0 -18 5 -21 10 -3 6 3 10 14 10 12
0 21 -4 21 -10z"/>
<path d="M220 2115 c0 -18 -16 -20 -23 -2 -3 7 -6 5 -6 -5 -1 -11 6 -18 18
-18 11 0 22 8 24 18 4 13 5 11 6 -5 0 -13 -3 -23 -9 -23 -5 0 -10 -7 -10 -15
0 -18 -16 -20 -23 -2 -3 7 -6 5 -6 -5 -1 -11 6 -18 18 -18 11 0 22 8 24 18 3
9 5 -3 5 -28 1 -39 -1 -42 -9 -21 -9 23 -11 24 -26 8 -16 -15 -16 -19 -2 -32
9 -9 23 -13 32 -9 24 9 25 154 2 154 -8 0 -15 -7 -15 -15z m0 -115 c0 -5 -2
-10 -4 -10 -3 0 -8 5 -11 10 -3 6 -1 10 4 10 6 0 11 -4 11 -10z"/>
<path d="M190 1947 c0 -7 5 -18 12 -25 8 -8 8 -15 -2 -27 -11 -13 -11 -18 2
-31 21 -21 48 -7 47 25 l-1 26 -7 -25 -7 -25 -6 23 c-4 15 -2 25 8 29 8 3 13
15 13 27 -1 17 -2 18 -6 3 -5 -20 -40 -19 -35 1 1 7 -2 12 -8 12 -5 0 -10 -6
-10 -13z m30 -67 c0 -5 -2 -10 -4 -10 -3 0 -8 5 -11 10 -3 6 -1 10 4 10 6 0
11 -4 11 -10z"/>
<path d="M333 1862 c-12 -7 -16 -25 -14 -55 2 -30 45 -18 49 14 3 28 -17 52
-35 41z m17 -37 c0 -14 -4 -25 -10 -25 -5 0 -10 11 -10 25 0 14 5 25 10 25 6
0 10 -11 10 -25z"/>
<path d="M426 1854 c-18 -17 -19 -24 -10 -48 7 -17 39 -22 48 -7 10 15 -5 41
-23 42 -13 0 -12 2 3 8 13 5 16 10 9 14 -6 4 -19 0 -27 -9z m24 -39 c0 -8 -4
-15 -10 -15 -5 0 -10 7 -10 15 0 8 5 15 10 15 6 0 10 -7 10 -15z"/>
<path d="M193 1835 c0 -10 10 -15 31 -14 21 1 25 3 11 6 -11 3 -25 9 -31 14
-7 5 -11 3 -11 -6z"/>
<path d="M200 1765 c-11 -13 -11 -18 2 -31 20 -20 50 -7 46 20 -4 26 -30 32
-48 11z m40 -15 c0 -5 -6 -10 -14 -10 -8 0 -18 5 -21 10 -3 6 3 10 14 10 12 0
21 -4 21 -10z"/>
<path d="M241 1712 c-1 -8 -11 -12 -26 -10 -13 2 -24 -1 -24 -7 0 -5 12 -8 27
-7 33 5 36 7 29 24 -4 11 -6 11 -6 0z"/>
<path d="M199 1634 c-10 -12 -10 -18 3 -30 21 -21 48 -7 47 25 l-1 26 -8 -25
c-5 -16 -8 -19 -9 -8 -1 24 -17 30 -32 12z m21 -14 c0 -5 -2 -10 -4 -10 -3 0
-8 5 -11 10 -3 6 -1 10 4 10 6 0 11 -4 11 -10z"/>
<path d="M210 1569 c11 -8 12 -12 3 -16 -7 -2 -13 -9 -13 -14 0 -5 11 -3 25 3
29 13 32 23 9 32 -26 10 -41 7 -24 -5z"/>
<path d="M188 1513 c12 -2 32 -2 45 0 12 2 2 4 -23 4 -25 0 -35 -2 -22 -4z"/>
<path d="M241 1492 c-1 -8 -11 -12 -26 -10 -13 2 -24 -1 -24 -7 0 -5 12 -8 27
-7 33 5 36 7 29 24 -4 11 -6 11 -6 0z"/>
<path d="M197 1443 c-11 -10 -8 -33 4 -33 5 0 7 6 3 13 -4 6 2 4 13 -6 21 -19
33 -14 33 15 0 12 -7 18 -23 18 -13 0 -27 -3 -30 -7z m43 -13 c0 -5 -2 -10 -4
-10 -3 0 -8 5 -11 10 -3 6 -1 10 4 10 6 0 11 -4 11 -10z"/>
<path d="M333 1402 c-12 -7 -16 -25 -14 -55 2 -30 45 -18 49 14 3 28 -17 52
-35 41z m17 -37 c0 -14 -4 -25 -10 -25 -5 0 -10 11 -10 25 0 14 5 25 10 25 6
0 10 -11 10 -25z"/>
<path d="M426 1379 c-20 -34 -20 -34 12 -43 23 -8 26 -1 22 39 -3 34 -15 36
-34 4z"/>
<path d="M188 1383 c12 -2 32 -2 45 0 12 2 2 4 -23 4 -25 0 -35 -2 -22 -4z"/>
<path d="M199 1354 c-10 -12 -10 -18 3 -30 21 -21 48 -7 47 25 l-1 26 -8 -25
c-5 -16 -8 -19 -9 -8 -1 24 -17 30 -32 12z m21 -14 c0 -5 -2 -10 -4 -10 -3 0
-8 5 -11 10 -3 6 -1 10 4 10 6 0 11 -4 11 -10z"/>
<path d="M193 1295 c0 -10 10 -15 31 -14 21 1 25 3 11 6 -11 3 -25 9 -31 14
-7 5 -11 3 -11 -6z"/>
<path d="M199 1224 c-10 -12 -10 -18 3 -30 21 -21 48 -7 47 25 l-1 26 -8 -25
c-5 -16 -8 -19 -9 -8 -1 24 -17 30 -32 12z m21 -14 c0 -5 -2 -10 -4 -10 -3 0
-8 5 -11 10 -3 6 -1 10 4 10 6 0 11 -4 11 -10z"/>
<path d="M190 1157 c0 -7 6 -19 12 -25 9 -9 10 -15 2 -20 -6 -4 -11 -15 -11
-24 0 -14 8 -18 31 -17 21 1 25 3 11 6 -34 8 -41 23 -12 23 28 0 37 14 15 23
-10 4 -10 6 0 6 6 1 11 11 11 24 -1 17 -2 18 -6 4 -5 -20 -40 -19 -35 1 1 7
-2 12 -8 12 -5 0 -10 -6 -10 -13z"/>
<path d="M199 1044 c-10 -12 -10 -18 3 -30 21 -21 48 -7 47 25 l-1 26 -8 -25
c-5 -16 -8 -19 -9 -8 -1 24 -17 30 -32 12z m21 -14 c0 -5 -2 -10 -4 -10 -3 0
-8 5 -11 10 -3 6 -1 10 4 10 6 0 11 -4 11 -10z"/>
<path d="M193 975 c0 -10 10 -15 31 -14 21 1 25 3 11 6 -11 3 -25 9 -31 14 -7
5 -11 3 -11 -6z"/>
<path d="M333 952 c-12 -7 -16 -25 -14 -55 2 -30 45 -18 49 14 3 28 -17 52
-35 41z m17 -37 c0 -14 -4 -25 -10 -25 -5 0 -10 11 -10 25 0 14 5 25 10 25 6
0 10 -11 10 -25z"/>
<path d="M419 949 c-11 -7 -9 -9 9 -9 28 0 28 -8 0 -37 l-21 -23 29 0 c20 0
25 3 15 9 -9 6 -10 11 -2 15 15 10 14 43 -2 49 -8 3 -20 1 -28 -4z"/>
<path d="M199 934 c-10 -12 -10 -18 3 -30 21 -21 48 -7 47 25 l-1 26 -8 -25
c-5 -16 -8 -19 -9 -8 -1 24 -17 30 -32 12z m21 -14 c0 -5 -2 -10 -4 -10 -3 0
-8 5 -11 10 -3 6 -1 10 4 10 6 0 11 -4 11 -10z"/>
<path d="M170 892 c0 -18 26 -28 55 -21 25 5 26 7 7 8 -13 0 -32 6 -43 11 -10
6 -19 7 -19 2z"/>
<path d="M170 851 c0 -5 5 -13 11 -17 8 -4 7 -9 -2 -15 -9 -6 2 -8 31 -8 41 1
42 2 15 9 l-30 8 30 2 30 2 -31 7 c-17 4 -36 11 -42 15 -7 4 -12 3 -12 -3z"/>
<path d="M180 781 c0 -5 8 -19 18 -31 22 -27 52 -18 52 16 0 21 -5 24 -35 24
-19 0 -35 -4 -35 -9z m60 -21 c0 -5 -6 -10 -14 -10 -8 0 -18 5 -21 10 -3 6 3
10 14 10 12 0 21 -4 21 -10z"/>
<path d="M218 683 c0 -5 -1 -19 -2 -32 -1 -13 -8 -26 -16 -28 -13 -4 -13 -3 0
6 13 9 13 11 -2 11 -23 0 -31 -15 -14 -29 11 -9 18 -8 30 4 9 9 21 13 28 9 10
-6 10 -4 0 8 -9 11 -10 18 -2 23 15 9 12 35 -5 35 -8 0 -16 -3 -17 -7z"/>
<path d="M185 660 c3 -5 11 -10 16 -10 6 0 7 5 4 10 -3 6 -11 10 -16 10 -6 0
-7 -4 -4 -10z"/>
<path d="M333 492 c-12 -7 -16 -25 -14 -55 2 -30 45 -18 49 14 3 28 -17 52
-35 41z m17 -37 c0 -14 -4 -25 -10 -25 -5 0 -10 11 -10 25 0 14 5 25 10 25 6
0 10 -11 10 -25z"/>
<path d="M420 485 c-17 -21 -4 -65 20 -65 23 0 35 33 20 60 -13 24 -23 25 -40
5z m30 -30 c0 -14 -4 -25 -10 -25 -5 0 -10 11 -10 25 0 14 5 25 10 25 6 0 10
-11 10 -25z"/>
<path d="M680 280 c-10 -6 -11 -10 -2 -10 6 0 12 -11 12 -24 0 -13 -6 -27 -12
-29 -7 -3 1 -6 17 -6 17 0 25 3 18 7 -6 4 -13 22 -15 39 -2 26 -6 31 -18 23z"/>
<path d="M875 280 c-3 -5 1 -10 9 -10 20 0 20 -14 1 -30 -23 -19 -18 -30 13
-29 18 1 21 3 9 6 -18 5 -18 6 -1 24 14 15 14 21 4 34 -14 17 -26 19 -35 5z"/>
<path d="M1075 280 c-3 -6 4 -10 17 -10 19 0 20 -2 8 -11 -11 -8 -12 -12 -2
-16 19 -8 14 -21 -10 -26 -20 -4 -19 -4 5 -6 24 -1 27 2 27 33 0 22 -6 36 -16
40 -21 8 -22 8 -29 -4z"/>
<path d="M1292 266 c-24 -31 -22 -41 8 -49 26 -7 30 1 21 43 l-7 34 -22 -28z
m18 -16 c0 -5 -5 -10 -11 -10 -5 0 -7 5 -4 10 3 6 8 10 11 10 2 0 4 -4 4 -10z"/>
<path d="M1487 283 c-12 -12 -7 -33 7 -33 26 0 28 -20 4 -30 l-23 -10 25 3
c33 3 39 34 8 46 -17 7 -19 10 -5 10 9 1 17 6 17 11 0 11 -23 14 -33 3z"/>
<path d="M1696 277 c-25 -19 -17 -61 12 -65 17 -3 22 2 22 18 0 11 -8 24 -17
27 -15 6 -15 7 2 13 11 4 14 9 8 13 -5 3 -18 1 -27 -6z m24 -42 c0 -8 -4 -15
-10 -15 -5 0 -10 7 -10 15 0 8 5 15 10 15 6 0 10 -7 10 -15z"/>
<path d="M1890 280 c0 -5 7 -10 15 -10 12 0 13 -4 5 -19 -16 -30 -11 -49 5
-21 21 36 19 60 -5 60 -11 0 -20 -4 -20 -10z"/>
<path d="M2097 283 c-4 -3 -7 -22 -7 -40 0 -30 3 -34 23 -31 16 2 22 10 22 28
0 38 -21 61 -38 43z m23 -23 c0 -5 -2 -10 -4 -10 -3 0 -8 5 -11 10 -3 6 -1 10
4 10 6 0 11 -4 11 -10z m0 -30 c0 -5 -4 -10 -10 -10 -5 0 -10 5 -10 10 0 6 5
10 10 10 6 0 10 -4 10 -10z"/>
<path d="M2303 283 c-19 -7 -16 -43 4 -50 15 -6 15 -7 -3 -15 -16 -6 -15 -7 6
-5 19 1 26 9 28 28 3 28 -15 49 -35 42z m17 -23 c0 -5 -4 -10 -10 -10 -5 0
-10 5 -10 10 0 6 5 10 10 10 6 0 10 -4 10 -10z"/>
<path d="M2470 279 c-10 -6 -11 -9 -2 -9 6 0 12 -11 12 -24 0 -13 -6 -27 -12
-29 -7 -3 -2 -6 12 -6 24 -1 26 2 22 34 -5 40 -12 48 -32 34z"/>
<path d="M2530 275 c-17 -21 -4 -65 20 -65 23 0 35 33 20 60 -13 24 -23 25
-40 5z m30 -30 c0 -14 -4 -25 -10 -25 -5 0 -10 11 -10 25 0 14 5 25 10 25 6 0
10 -11 10 -25z"/>
<path d="M2740 280 c-10 -6 -11 -10 -2 -10 6 0 12 -11 12 -24 0 -13 -6 -27
-12 -29 -7 -3 1 -6 17 -6 17 0 25 3 18 7 -6 4 -13 22 -15 39 -2 26 -6 31 -18
23z"/>
<path d="M2880 280 c-10 -6 -11 -10 -2 -10 6 0 12 -11 12 -24 0 -13 -6 -27
-12 -29 -7 -3 1 -6 17 -6 17 0 25 3 18 7 -6 4 -13 22 -15 39 -2 26 -6 31 -18
23z"/>
<path d="M2935 281 c-3 -5 4 -11 16 -13 l21 -3 -22 -27 -21 -28 28 1 c22 0 24
2 10 8 -17 6 -17 8 -3 20 20 17 20 37 0 45 -20 8 -22 8 -29 -3z"/>
<path d="M3080 280 c-10 -6 -11 -10 -2 -10 6 0 12 -11 12 -24 0 -13 -6 -27
-12 -29 -7 -3 1 -6 17 -6 17 0 25 3 18 7 -6 4 -13 22 -15 39 -2 26 -6 31 -18
23z"/>
<path d="M3140 280 c-12 -8 -10 -10 10 -10 20 0 22 -2 10 -11 -11 -8 -12 -12
-2 -16 19 -8 14 -21 -10 -26 -19 -4 -18 -4 5 -6 27 -1 28 1 25 36 -3 39 -14
48 -38 33z"/>
<path d="M3352 266 c-24 -31 -22 -41 8 -49 26 -7 30 1 21 43 l-7 34 -22 -28z
m18 -16 c0 -5 -5 -10 -11 -10 -5 0 -7 5 -4 10 3 6 8 10 11 10 2 0 4 -4 4 -10z"/>
<path d="M3490 280 c-10 -6 -11 -10 -2 -10 6 0 12 -11 12 -24 0 -13 -6 -27
-12 -29 -7 -3 1 -6 17 -6 17 0 25 3 18 7 -6 4 -13 22 -15 39 -2 26 -6 31 -18
23z"/>
<path d="M3547 283 c-12 -12 -7 -33 7 -33 26 0 28 -20 4 -30 l-23 -10 25 3
c33 3 39 34 8 46 -17 7 -19 10 -5 10 9 1 17 6 17 11 0 11 -23 14 -33 3z"/>
<path d="M3690 280 c-10 -6 -11 -10 -2 -10 6 0 12 -11 12 -24 0 -13 -6 -27
-12 -29 -7 -3 1 -6 17 -6 17 0 25 3 18 7 -6 4 -13 22 -15 39 -2 26 -6 31 -18
23z"/>
<path d="M3756 277 c-25 -19 -17 -61 12 -65 17 -3 22 2 22 18 0 11 -8 24 -17
27 -15 6 -15 7 2 13 11 4 14 9 8 13 -5 3 -18 1 -27 -6z m24 -42 c0 -8 -4 -15
-10 -15 -5 0 -10 7 -10 15 0 8 5 15 10 15 6 0 10 -7 10 -15z"/>
<path d="M2675 245 c0 -25 4 -35 15 -35 12 0 15 8 12 35 -2 19 -9 35 -16 35
-6 0 -11 -15 -11 -35z"/>
<path d="M3285 245 c0 -25 4 -35 15 -35 12 0 15 8 12 35 -2 19 -9 35 -16 35
-6 0 -11 -15 -11 -35z"/>
<path d="M2243 138 c-23 -11 -33 -58 -13 -58 6 0 10 9 10 19 0 28 18 36 22 9
5 -34 23 -31 22 4 -1 36 -9 41 -41 26z"/>
<path d="M2035 121 c-7 -24 1 -41 20 -41 7 0 16 -6 19 -12 3 -7 4 5 3 27 -2
45 -30 62 -42 26z m35 -17 c0 -14 -12 -19 -23 -8 -9 9 4 35 14 28 5 -3 9 -12
9 -20z"/>
<path d="M2101 113 c-1 -29 2 -33 24 -33 21 0 25 5 24 28 0 26 -1 26 -9 5 -13
-31 -28 -29 -33 5 -4 25 -4 25 -6 -5z"/>
<path d="M2180 131 c12 -9 12 -11 -3 -17 -27 -10 -21 -34 9 -34 22 0 25 4 22
27 -2 19 -10 29 -23 31 -16 2 -17 1 -5 -7z m15 -31 c-3 -5 -11 -10 -16 -10 -6
0 -7 5 -4 10 3 6 11 10 16 10 6 0 7 -4 4 -10z"/>
<path d="M2310 125 c-17 -21 -5 -45 22 -44 21 0 21 1 4 8 -19 7 -19 8 2 13 15
4 22 2 22 -8 0 -8 5 -14 10 -14 6 0 10 8 10 18 0 10 5 23 12 30 15 15 3 16
-22 2 -13 -7 -21 -7 -25 0 -9 14 -21 12 -35 -5z m30 -5 c0 -5 -4 -10 -10 -10
-5 0 -10 5 -10 10 0 6 5 10 10 10 6 0 10 -4 10 -10z"/>
</g>
</svg>
