<?xml version="1.0" standalone="no"?>
<!DOCTYPE svg PUBLIC "-//W3C//DTD SVG 20010904//EN"
 "http://www.w3.org/TR/2001/REC-SVG-20010904/DTD/svg10.dtd">
<svg version="1.0" xmlns="http://www.w3.org/2000/svg"
 width="432.000000pt" height="288.000000pt" viewBox="0 0 432.000000 288.000000"
 preserveAspectRatio="xMidYMid meet">
<metadata>
Created by potrace 1.16, written by Peter Selinger 2001-2019
</metadata>
<g transform="translate(0.000000,288.000000) scale(0.100000,-0.100000)"
fill="#000000" stroke="none">
<path d="M530 2511 c0 -20 -6 -31 -17 -34 -17 -4 -17 -5 0 -6 16 -1 17 -17 17
-195 0 -146 -3 -196 -12 -199 -10 -4 -10 -6 0 -6 18 -1 18 -387 0 -395 -10 -5
-10 -7 0 -12 9 -4 12 -54 12 -199 0 -176 -2 -194 -17 -198 -17 -4 -17 -5 0 -6
16 -1 17 -17 17 -195 0 -146 -3 -196 -12 -199 -10 -4 -10 -6 0 -6 18 -1 18
-387 0 -394 -10 -4 -10 -7 -1 -14 6 -5 13 -29 15 -53 l3 -45 75 -3 c44 -2 78
-8 82 -15 6 -9 8 -9 8 1 0 9 26 12 94 12 82 0 95 -2 99 -18 4 -16 5 -16 6 1 1
15 13 17 95 17 66 0 96 -4 99 -12 4 -10 6 -10 6 0 1 17 187 17 195 0 5 -11 7
-11 12 0 4 8 34 12 99 12 81 0 94 -2 98 -18 4 -16 5 -16 6 1 1 15 13 17 95 17
66 0 96 -4 99 -12 4 -10 6 -10 6 0 1 9 27 12 95 12 66 0 96 -4 100 -12 5 -10
7 -10 12 0 8 17 190 17 197 0 4 -10 6 -10 6 0 1 9 27 12 95 12 82 0 95 -2 99
-17 4 -17 5 -17 6 0 1 15 13 17 95 17 66 0 96 -4 99 -12 4 -10 6 -10 6 0 1 9
28 12 100 12 70 0 101 -4 104 -12 4 -10 6 -10 6 0 1 9 27 12 95 12 82 0 95 -2
99 -17 4 -17 5 -17 6 0 1 15 13 17 95 17 66 0 96 -4 99 -12 4 -10 6 -10 6 0 1
9 27 12 95 12 66 0 96 -4 100 -12 5 -10 7 -10 12 0 8 17 190 17 197 0 4 -10 6
-10 6 0 1 9 27 12 95 12 82 0 95 -2 99 -17 4 -17 5 -17 6 0 1 15 12 17 76 17
l75 0 0 1095 0 1095 -1680 0 -1680 0 0 -29z m3350 -1061 l0 -1080 -1665 0
-1665 0 0 1080 0 1080 1665 0 1665 0 0 -1080z"/>
<path d="M863 2433 c9 -2 23 -2 30 0 6 3 -1 5 -18 5 -16 0 -22 -2 -12 -5z"/>
<path d="M2513 2405 c0 -22 2 -30 4 -17 2 12 2 30 0 40 -3 9 -5 -1 -4 -23z"/>
<path d="M783 2423 c9 -2 23 -2 30 0 6 3 -1 5 -18 5 -16 0 -22 -2 -12 -5z"/>
<path d="M935 2420 c3 -5 16 -10 28 -9 21 0 21 1 2 9 -28 12 -37 12 -30 0z"/>
<path d="M2553 2423 c-15 -6 -18 -53 -3 -53 6 0 10 9 10 19 0 31 18 34 23 4
l5 -28 -2 29 c-1 30 -11 38 -33 29z"/>
<path d="M2611 2416 c-16 -19 -3 -46 23 -45 17 1 18 2 3 6 -20 5 -19 40 1 36
7 -2 12 2 12 7 0 15 -26 12 -39 -4z"/>
<path d="M2664 2416 c-9 -24 3 -46 26 -46 17 0 21 5 18 27 -3 31 -34 44 -44
19z m36 -22 c0 -8 -7 -14 -15 -14 -15 0 -21 21 -9 33 10 9 24 -2 24 -19z"/>
<path d="M2733 2423 c-15 -5 -18 -53 -3 -53 6 0 10 9 10 20 0 28 20 25 21 -2
0 -14 2 -17 6 -8 14 43 16 44 23 15 l8 -30 1 31 c1 27 -2 31 -26 31 -16 0 -34
-2 -40 -4z"/>
<path d="M2832 2421 c-22 -14 -10 -46 18 -48 23 -2 23 -2 5 6 -18 9 -18 10 -2
10 12 1 17 7 15 18 -4 20 -18 26 -36 14z m23 -11 c3 -5 -1 -10 -10 -10 -9 0
-13 5 -10 10 3 6 8 10 10 10 2 0 7 -4 10 -10z"/>
<path d="M703 2413 c9 -2 25 -2 35 0 9 3 1 5 -18 5 -19 0 -27 -2 -17 -5z"/>
<path d="M1010 2399 c0 -5 4 -9 9 -9 5 0 17 -3 27 -7 11 -4 15 -3 11 4 -9 14
-47 24 -47 12z"/>
<path d="M2273 2403 c32 -2 81 -2 110 0 29 2 3 3 -58 3 -60 0 -84 -1 -52 -3z"/>
<path d="M1095 2370 c28 -12 37 -12 30 0 -3 6 -16 10 -28 9 -21 0 -21 -1 -2
-9z"/>
<path d="M1175 2350 c28 -12 37 -12 30 0 -3 6 -16 10 -28 9 -21 0 -21 -1 -2
-9z"/>
<path d="M1231 2336 c12 -10 60 -16 54 -6 -3 5 -18 10 -32 10 -15 0 -24 -2
-22 -4z"/>
<path d="M1310 2316 c0 -2 11 -6 25 -8 14 -3 25 -1 25 3 0 5 -11 9 -25 9 -14
0 -25 -2 -25 -4z"/>
<path d="M1390 2300 c0 -4 11 -10 25 -12 14 -3 25 -2 25 2 0 4 -11 10 -25 12
-14 3 -25 2 -25 -2z"/>
<path d="M2920 2275 c-8 -21 1 -75 12 -75 2 0 3 23 3 50 0 28 -1 50 -3 50 -1
0 -7 -11 -12 -25z"/>
<path d="M3027 2294 c-4 -4 -7 -21 -8 -38 l-1 -31 -14 33 c-18 40 -29 41 -43
1 -14 -42 -14 -41 10 -27 17 10 23 10 26 1 6 -18 68 -16 83 2 12 15 5 55 -10
55 -5 0 -15 2 -22 5 -8 3 -17 2 -21 -1z m43 -39 c0 -16 -6 -25 -15 -25 -9 0
-15 9 -15 25 0 16 6 25 15 25 9 0 15 -9 15 -25z m-80 5 c0 -5 -5 -10 -11 -10
-5 0 -7 5 -4 10 3 6 8 10 11 10 2 0 4 -4 4 -10z"/>
<path d="M3196 2284 c-9 -25 -7 -64 4 -64 6 0 10 11 10 25 0 34 20 32 21 -2 1
-28 1 -28 8 3 4 17 11 36 15 42 4 7 3 12 -3 12 -5 0 -13 -4 -16 -10 -3 -5 -11
-10 -16 -10 -6 0 -7 5 -4 10 3 6 2 10 -3 10 -6 0 -13 -7 -16 -16z"/>
<path d="M3475 2248 c0 -46 1 -47 11 -22 6 15 9 36 6 46 -9 36 -17 25 -17 -24z"/>
<path d="M1470 2280 c0 -4 11 -10 25 -12 14 -3 25 -2 25 2 0 4 -11 10 -25 12
-14 3 -25 2 -25 -2z"/>
<path d="M2513 2255 c0 -22 2 -30 4 -17 2 12 2 30 0 40 -3 9 -5 -1 -4 -23z"/>
<path d="M3380 2255 c0 -27 4 -35 18 -34 10 0 12 3 5 6 -16 6 -17 40 -1 45 7
3 6 7 -5 11 -14 5 -17 0 -17 -28z"/>
<path d="M2553 2273 c-15 -6 -18 -53 -3 -53 6 0 10 9 10 19 0 31 18 34 23 4
l5 -28 -2 29 c-1 30 -11 38 -33 29z"/>
<path d="M2611 2266 c-16 -19 -3 -46 23 -45 17 1 18 2 3 6 -20 5 -19 40 1 36
7 -2 12 2 12 7 0 15 -26 12 -39 -4z"/>
<path d="M2664 2266 c-9 -24 3 -46 26 -46 17 0 21 5 18 27 -3 31 -34 44 -44
19z m36 -22 c0 -8 -7 -14 -15 -14 -15 0 -21 21 -9 33 10 9 24 -2 24 -19z"/>
<path d="M2733 2273 c-15 -5 -18 -53 -3 -53 6 0 10 9 10 20 0 28 20 25 21 -2
0 -14 2 -17 6 -8 14 43 16 44 23 15 l8 -30 1 31 c1 27 -2 31 -26 31 -16 0 -34
-2 -40 -4z"/>
<path d="M2832 2271 c-22 -14 -10 -46 18 -48 23 -2 23 -2 5 6 -18 9 -18 10 -2
10 12 1 17 7 15 18 -4 20 -18 26 -36 14z m23 -11 c3 -5 -1 -10 -10 -10 -9 0
-13 5 -10 10 3 6 8 10 10 10 2 0 7 -4 10 -10z"/>
<path d="M3142 2271 c-22 -14 -10 -46 18 -48 23 -2 23 -2 5 6 -18 9 -18 10 -2
10 12 1 17 7 15 18 -4 20 -18 26 -36 14z m23 -11 c3 -5 -1 -10 -10 -10 -9 0
-13 5 -10 10 3 6 8 10 10 10 2 0 7 -4 10 -10z"/>
<path d="M3272 2271 c-22 -14 -10 -46 18 -48 23 -2 23 -2 5 6 -18 9 -18 10 -2
10 12 1 17 7 15 18 -4 20 -18 26 -36 14z m23 -11 c3 -5 -1 -10 -10 -10 -9 0
-13 5 -10 10 3 6 8 10 10 10 2 0 7 -4 10 -10z"/>
<path d="M3330 2265 c-17 -21 -5 -45 22 -44 18 1 19 2 5 6 -20 5 -18 40 2 35
7 -1 10 2 6 8 -9 14 -20 13 -35 -5z"/>
<path d="M3424 2268 c-4 -6 1 -17 10 -24 16 -12 16 -13 -1 -17 -14 -4 -14 -5
5 -6 26 -1 30 24 5 33 -15 6 -15 8 -3 16 9 6 10 10 3 10 -6 0 -15 -5 -19 -12z"/>
<path d="M1545 2260 c3 -5 18 -10 32 -10 32 0 28 5 -10 14 -19 4 -26 3 -22 -4z"/>
<path d="M2243 2253 c9 -2 23 -2 30 0 6 3 -1 5 -18 5 -16 0 -22 -2 -12 -5z"/>
<path d="M2323 2253 c9 -2 23 -2 30 0 6 3 -1 5 -18 5 -16 0 -22 -2 -12 -5z"/>
<path d="M2398 2253 c6 -2 18 -2 25 0 6 3 1 5 -13 5 -14 0 -19 -2 -12 -5z"/>
<path d="M1630 2240 c8 -5 22 -10 30 -10 13 0 13 1 0 10 -8 5 -22 10 -30 10
-13 0 -13 -1 0 -10z"/>
<path d="M1700 2226 c0 -2 11 -6 25 -8 14 -3 25 -1 25 3 0 5 -11 9 -25 9 -14
0 -25 -2 -25 -4z"/>
<path d="M1785 2210 c3 -5 16 -10 28 -9 21 0 21 1 2 9 -28 12 -37 12 -30 0z"/>
<path d="M1873 2193 c9 -2 23 -2 30 0 6 3 -1 5 -18 5 -16 0 -22 -2 -12 -5z"/>
<path d="M1931 2186 c12 -10 60 -16 54 -6 -3 5 -18 10 -32 10 -15 0 -24 -2
-22 -4z"/>
<path d="M2020 2170 c8 -5 22 -10 30 -10 13 0 13 1 0 10 -8 5 -22 10 -30 10
-13 0 -13 -1 0 -10z"/>
<path d="M2090 2164 c0 -3 7 -12 15 -20 13 -13 15 -13 15 -1 0 8 -7 17 -15 21
-8 3 -15 3 -15 0z"/>
<path d="M2526 2144 c-29 -28 -15 -65 23 -63 23 2 24 2 4 6 -31 6 -33 53 -2
53 11 0 17 5 14 10 -9 14 -21 12 -39 -6z"/>
<path d="M2982 2119 c4 -42 23 -49 22 -7 0 18 -6 34 -13 36 -9 3 -11 -6 -9
-29z"/>
<path d="M2592 2131 c-19 -12 -11 -45 12 -49 24 -5 37 17 25 40 -11 20 -18 22
-37 9z m28 -27 c0 -8 -4 -14 -10 -14 -5 0 -10 9 -10 21 0 11 5 17 10 14 6 -3
10 -13 10 -21z"/>
<path d="M2651 2106 c1 -21 3 -25 6 -11 8 34 23 41 23 12 0 -15 5 -27 10 -27
12 0 13 30 2 46 -4 6 -15 11 -24 11 -14 0 -18 -8 -17 -31z"/>
<path d="M2714 2128 c-4 -6 1 -17 10 -24 16 -12 16 -13 -1 -17 -14 -4 -14 -5
5 -6 26 -1 30 24 5 33 -15 6 -15 8 -3 16 9 6 10 10 3 10 -6 0 -15 -5 -19 -12z"/>
<path d="M2800 2115 c0 -31 -17 -33 -30 -2 -10 22 -10 22 -7 -3 1 -17 9 -26
25 -28 19 -3 22 1 22 27 0 17 -2 31 -5 31 -3 0 -5 -11 -5 -25z"/>
<path d="M2833 2133 c-15 -5 -18 -53 -3 -53 6 0 10 9 10 20 0 28 20 25 21 -2
0 -14 2 -17 6 -8 14 43 16 44 23 15 l8 -30 1 31 c1 27 -2 31 -26 31 -16 0 -34
-2 -40 -4z"/>
<path d="M2933 2133 c-15 -6 -18 -73 -3 -73 6 0 10 5 10 10 0 6 7 10 16 10 11
0 14 8 12 27 -3 27 -14 35 -35 26z m27 -29 c0 -8 -4 -14 -10 -14 -5 0 -10 9
-10 21 0 11 5 17 10 14 6 -3 10 -13 10 -21z"/>
<path d="M3054 2126 c-9 -24 3 -46 26 -46 17 0 21 5 18 27 -3 31 -34 44 -44
19z m36 -22 c0 -8 -7 -14 -15 -14 -15 0 -21 21 -9 33 10 9 24 -2 24 -19z"/>
<path d="M3123 2133 c-15 -6 -18 -53 -3 -53 6 0 10 9 10 19 0 31 18 34 23 4
l5 -28 -2 29 c-1 30 -11 38 -33 29z"/>
<path d="M3022 2105 c0 -16 2 -22 5 -12 2 9 2 23 0 30 -3 6 -5 -1 -5 -18z"/>
<path d="M2273 2113 c32 -2 81 -2 110 0 29 2 3 3 -58 3 -60 0 -84 -1 -52 -3z"/>
<path d="M2118 2075 c2 -14 6 -25 8 -25 2 0 4 11 4 25 0 14 -4 25 -9 25 -4 0
-6 -11 -3 -25z"/>
<path d="M885 2009 c-82 -4 -161 -13 -175 -19 -23 -10 -22 -10 10 -5 137 22
1390 37 1390 17 0 -11 68 -536 76 -586 4 -27 3 -36 -5 -32 -14 9 -14 -10 1
-37 6 -12 13 -31 14 -42 2 -11 7 -44 12 -73 5 -29 7 -50 4 -47 -3 3 -26 67
-51 143 l-46 137 -95 33 c-105 37 -267 71 -465 98 -99 14 -190 18 -385 17
-237 -1 -480 -18 -480 -33 0 -3 48 0 108 7 170 21 590 21 747 -1 268 -36 545
-108 564 -145 5 -9 34 -96 65 -194 53 -169 58 -195 96 -482 22 -167 40 -306
40 -309 0 -3 322 -6 715 -6 441 0 715 4 715 9 0 6 -92 9 -230 9 -126 -1 -233
1 -237 5 -11 12 -51 8 -56 -5 -4 -10 -7 -10 -18 -1 -17 17 -56 17 -63 1 -5
-10 -7 -10 -12 0 -3 6 -18 12 -34 12 -16 0 -31 -6 -34 -12 -5 -10 -7 -10 -12
0 -7 15 -46 16 -60 2 -7 -7 -125 -9 -335 -8 l-324 3 -9 44 c-7 31 -6 46 1 48
13 5 5 43 -8 43 -5 0 -6 18 -3 40 4 27 3 40 -5 40 -8 0 -9 13 -5 40 4 26 3 40
-4 40 -7 0 -9 14 -5 36 4 22 2 39 -5 43 -7 4 -9 17 -4 35 l8 29 12 -40 c12
-39 15 -42 112 -82 231 -96 742 -186 1230 -217 58 -4 103 -4 100 -1 -3 2 -75
10 -160 16 -302 23 -456 43 -735 97 -201 40 -321 72 -428 116 l-97 41 -30 95
c-17 53 -30 106 -30 117 0 12 -5 26 -12 33 -9 9 -9 15 0 24 16 16 15 47 -2 54
-10 4 -13 15 -9 39 3 18 1 35 -5 39 -6 4 -8 21 -5 41 4 23 2 35 -6 35 -8 0 -9
13 -5 40 4 27 3 40 -5 40 -8 0 -9 13 -5 40 4 27 3 40 -5 40 -8 0 -9 13 -5 40
4 25 3 40 -4 40 -6 0 -8 16 -5 40 4 24 2 40 -5 40 -6 0 -8 16 -5 42 5 30 3 39
-6 34 -8 -6 -10 3 -5 33 4 28 3 41 -5 41 -8 0 -9 13 -5 40 4 27 3 40 -5 40 -8
0 -9 13 -5 40 4 27 3 40 -5 40 -8 0 -9 13 -5 40 l7 40 -554 -1 c-305 -1 -621
-6 -704 -10z m1390 -1079 c3 -5 1 -10 -4 -10 -6 0 -11 5 -11 10 0 6 2 10 4 10
3 0 8 -4 11 -10z"/>
<path d="M2526 1994 c-29 -28 -15 -65 23 -63 23 2 24 2 4 6 -31 6 -33 53 -2
53 11 0 17 5 14 10 -9 14 -21 12 -39 -6z"/>
<path d="M3216 1994 c-8 -22 -8 -62 2 -67 4 -3 7 15 8 39 1 48 -1 52 -10 28z"/>
<path d="M3256 1976 c-20 -48 -20 -49 4 -34 17 11 22 10 30 -2 18 -28 18 -4 1
35 l-18 40 -17 -39z"/>
<path d="M3320 1969 c0 -38 1 -40 28 -37 34 4 44 45 16 65 -32 23 -44 16 -44
-28z m45 -4 c0 -11 -8 -21 -17 -23 -14 -3 -18 3 -18 23 0 20 4 26 18 23 9 -2
17 -12 17 -23z"/>
<path d="M3493 1998 c-5 -7 -6 -26 -2 -43 5 -25 7 -26 8 -7 0 13 6 32 11 43
12 21 -2 26 -17 7z"/>
<path d="M3526 1994 c-9 -25 -7 -64 4 -64 6 0 10 10 11 23 0 12 2 30 4 40 4
21 -11 23 -19 1z"/>
<path d="M3772 1966 c1 -29 4 -42 9 -34 11 17 11 49 0 67 -6 10 -9 -1 -9 -33z"/>
<path d="M2982 1969 c4 -42 23 -49 22 -7 0 18 -6 34 -13 36 -9 3 -11 -6 -9
-29z"/>
<path d="M3672 1969 c4 -42 23 -49 22 -7 0 18 -6 34 -13 36 -9 3 -11 -6 -9
-29z"/>
<path d="M2592 1981 c-19 -12 -11 -45 12 -49 24 -5 37 17 25 40 -11 20 -18 22
-37 9z m28 -27 c0 -8 -4 -14 -10 -14 -5 0 -10 9 -10 21 0 11 5 17 10 14 6 -3
10 -13 10 -21z"/>
<path d="M2651 1956 c1 -21 3 -25 6 -11 8 34 23 41 23 12 0 -15 5 -27 10 -27
12 0 13 30 2 46 -4 6 -15 11 -24 11 -14 0 -18 -8 -17 -31z"/>
<path d="M2714 1978 c-4 -6 1 -17 10 -24 16 -12 16 -13 -1 -17 -14 -4 -14 -5
5 -6 26 -1 30 24 5 33 -15 6 -15 8 -3 16 9 6 10 10 3 10 -6 0 -15 -5 -19 -12z"/>
<path d="M2800 1965 c0 -31 -17 -33 -30 -2 -10 22 -10 22 -7 -3 1 -17 9 -26
25 -28 19 -3 22 1 22 27 0 17 -2 31 -5 31 -3 0 -5 -11 -5 -25z"/>
<path d="M2833 1983 c-15 -5 -18 -53 -3 -53 6 0 10 9 10 20 0 28 20 25 21 -2
0 -14 2 -17 6 -8 14 43 16 44 23 15 l8 -30 1 31 c1 27 -2 31 -26 31 -16 0 -34
-2 -40 -4z"/>
<path d="M2933 1983 c-15 -6 -18 -73 -3 -73 6 0 10 5 10 10 0 6 7 10 16 10 11
0 14 8 12 27 -3 27 -14 35 -35 26z m27 -29 c0 -8 -4 -14 -10 -14 -5 0 -10 9
-10 21 0 11 5 17 10 14 6 -3 10 -13 10 -21z"/>
<path d="M3054 1976 c-9 -24 3 -46 26 -46 17 0 21 5 18 27 -3 31 -34 44 -44
19z m36 -22 c0 -8 -7 -14 -15 -14 -15 0 -21 21 -9 33 10 9 24 -2 24 -19z"/>
<path d="M3123 1983 c-15 -6 -18 -53 -3 -53 6 0 10 9 10 19 0 31 18 34 23 4
l5 -28 -2 29 c-1 30 -11 38 -33 29z"/>
<path d="M3430 1975 c-17 -21 -5 -45 22 -44 21 0 21 1 4 8 -19 7 -18 8 4 14
20 5 21 8 10 21 -16 20 -24 20 -40 1z m30 -5 c0 -5 -4 -10 -10 -10 -5 0 -10 5
-10 10 0 6 5 10 10 10 6 0 10 -4 10 -10z"/>
<path d="M3561 1976 c-18 -21 -2 -46 28 -45 l26 1 -25 7 -25 7 24 7 c21 5 22
8 11 21 -15 20 -24 20 -39 2z m29 -6 c0 -5 -5 -10 -11 -10 -5 0 -7 5 -4 10 3
6 8 10 11 10 2 0 4 -4 4 -10z"/>
<path d="M3627 1983 c-4 -3 -7 -17 -7 -30 0 -18 5 -23 23 -22 17 1 18 2 4 6
-20 5 -19 40 1 36 7 -2 12 2 12 7 0 11 -23 14 -33 3z"/>
<path d="M3714 1978 c-4 -6 1 -17 10 -24 16 -12 16 -13 -1 -17 -14 -4 -14 -5
5 -6 13 -1 22 5 22 14 0 8 -4 15 -10 15 -5 0 -10 5 -10 11 0 5 5 7 10 4 6 -3
10 -1 10 4 0 15 -27 14 -36 -1z"/>
<path d="M3022 1955 c0 -16 2 -22 5 -12 2 9 2 23 0 30 -3 6 -5 -1 -5 -18z"/>
<path d="M2243 1963 c9 -2 23 -2 30 0 6 3 -1 5 -18 5 -16 0 -22 -2 -12 -5z"/>
<path d="M2323 1963 c9 -2 23 -2 30 0 6 3 -1 5 -18 5 -16 0 -22 -2 -12 -5z"/>
<path d="M2398 1963 c6 -2 18 -2 25 0 6 3 1 5 -13 5 -14 0 -19 -2 -12 -5z"/>
<path d="M790 1880 l-25 -8 28 -1 c15 -1 27 4 27 9 0 6 -1 10 -2 9 -2 -1 -14
-5 -28 -9z"/>
<path d="M863 1883 c9 -2 23 -2 30 0 6 3 -1 5 -18 5 -16 0 -22 -2 -12 -5z"/>
<path d="M943 1883 c9 -2 23 -2 30 0 6 3 -1 5 -18 5 -16 0 -22 -2 -12 -5z"/>
<path d="M705 1870 l-20 -9 20 0 c11 0 27 4 35 9 13 9 13 10 0 9 -8 0 -24 -4
-35 -9z"/>
<path d="M1023 1873 c9 -2 23 -2 30 0 6 3 -1 5 -18 5 -16 0 -22 -2 -12 -5z"/>
<path d="M1103 1863 c9 -2 23 -2 30 0 6 3 -1 5 -18 5 -16 0 -22 -2 -12 -5z"/>
<path d="M1183 1853 c9 -2 23 -2 30 0 6 3 -1 5 -18 5 -16 0 -22 -2 -12 -5z"/>
<path d="M1263 1843 c9 -2 23 -2 30 0 6 3 -1 5 -18 5 -16 0 -22 -2 -12 -5z"/>
<path d="M1335 1830 c11 -5 27 -9 35 -9 13 -1 13 0 0 9 -8 5 -24 9 -35 9 l-20
0 20 -9z"/>
<path d="M1400 1816 c0 -2 11 -6 25 -8 14 -3 25 -1 25 3 0 5 -11 9 -25 9 -14
0 -25 -2 -25 -4z"/>
<path d="M1485 1800 c3 -5 16 -10 28 -9 21 0 21 1 2 9 -28 12 -37 12 -30 0z"/>
<path d="M1560 1782 c0 -5 11 -12 25 -14 14 -3 25 -1 25 3 0 5 -4 9 -9 9 -5 0
-16 3 -25 6 -9 3 -16 2 -16 -4z"/>
<path d="M1633 1763 c9 -14 47 -24 47 -12 0 5 -4 9 -9 9 -5 0 -17 3 -27 7 -11
4 -15 3 -11 -4z"/>
<path d="M1710 1739 c0 -5 4 -9 9 -9 5 0 17 -3 27 -7 11 -4 15 -3 11 4 -9 14
-47 24 -47 12z"/>
<path d="M1790 1710 c8 -5 24 -9 35 -9 l20 0 -20 9 c-11 5 -27 9 -35 9 -13 1
-13 0 0 -9z"/>
<path d="M1860 1689 c0 -5 4 -9 9 -9 5 0 16 -3 25 -6 9 -3 16 -2 16 4 0 5 -11
12 -25 14 -14 3 -25 1 -25 -3z"/>
<path d="M1940 1660 c0 -9 39 -25 46 -18 2 3 -7 10 -21 16 -14 6 -25 7 -25 2z"/>
<path d="M2010 1630 c0 -9 39 -25 46 -18 2 3 -7 10 -21 16 -14 6 -25 7 -25 2z"/>
<path d="M2096 1586 c21 -15 30 -14 19 3 -3 6 -14 11 -23 11 -13 0 -13 -2 4
-14z"/>
<path d="M2124 1524 c3 -9 6 -20 6 -25 0 -5 4 -9 9 -9 4 0 6 11 3 25 -2 14 -9
25 -14 25 -6 0 -7 -7 -4 -16z"/>
<path d="M2151 1453 c-1 -12 4 -25 9 -28 12 -7 12 2 0 30 -8 19 -9 19 -9 -2z"/>
<path d="M2264 1074 c3 -9 6 -20 6 -25 0 -5 4 -9 9 -9 4 0 6 11 3 25 -2 14 -9
25 -14 25 -6 0 -7 -7 -4 -16z"/>
<path d="M2290 1000 c0 -8 5 -22 10 -30 9 -13 10 -13 10 0 0 8 -5 22 -10 30
-9 13 -10 13 -10 0z"/>
<path d="M2330 920 c14 -10 27 -17 29 -14 6 5 -31 33 -44 33 -5 1 1 -8 15 -19z"/>
<path d="M2400 880 c14 -10 27 -16 30 -13 6 6 -30 33 -44 33 -6 0 0 -9 14 -20z"/>
<path d="M2464 845 c11 -8 25 -15 30 -15 6 0 2 7 -8 15 -11 8 -25 15 -30 15
-6 0 -2 -7 8 -15z"/>
<path d="M2530 810 c8 -5 22 -10 30 -10 13 0 13 1 0 10 -8 5 -22 10 -30 10
-13 0 -13 -1 0 -10z"/>
<path d="M2600 792 c0 -10 41 -24 49 -17 6 7 0 11 -26 19 -13 4 -23 3 -23 -2z"/>
<path d="M2685 760 c28 -12 37 -12 30 0 -3 6 -16 10 -28 9 -21 0 -21 -1 -2 -9z"/>
<path d="M2760 740 c8 -5 22 -10 30 -10 13 0 13 1 0 10 -8 5 -22 10 -30 10
-13 0 -13 -1 0 -10z"/>
<path d="M2840 720 c8 -5 22 -10 30 -10 13 0 13 1 0 10 -8 5 -22 10 -30 10
-13 0 -13 -1 0 -10z"/>
<path d="M2915 700 c11 -5 27 -9 35 -9 13 -1 13 0 0 9 -8 5 -24 9 -35 9 l-20
0 20 -9z"/>
<path d="M2980 690 c0 -4 11 -10 25 -12 14 -3 25 -2 25 2 0 4 -11 10 -25 12
-14 3 -25 2 -25 -2z"/>
<path d="M3065 670 c3 -5 16 -10 28 -9 21 0 21 1 2 9 -28 12 -37 12 -30 0z"/>
<path d="M3140 656 c0 -2 11 -6 25 -8 14 -3 25 -1 25 3 0 5 -11 9 -25 9 -14 0
-25 -2 -25 -4z"/>
<path d="M3235 640 c28 -12 37 -12 30 0 -3 6 -16 10 -28 9 -21 0 -21 -1 -2 -9z"/>
<path d="M3305 630 c3 -5 16 -10 28 -10 18 0 19 2 7 10 -20 13 -43 13 -35 0z"/>
<path d="M3385 620 c28 -12 37 -12 30 0 -3 6 -16 10 -28 9 -21 0 -21 -1 -2 -9z"/>
<path d="M3450 616 c0 -2 11 -6 25 -8 14 -3 25 -1 25 3 0 5 -11 9 -25 9 -14 0
-25 -2 -25 -4z"/>
<path d="M3543 603 c9 -2 23 -2 30 0 6 3 -1 5 -18 5 -16 0 -22 -2 -12 -5z"/>
<path d="M3623 593 c9 -2 23 -2 30 0 6 3 -1 5 -18 5 -16 0 -22 -2 -12 -5z"/>
<path d="M3690 596 c0 -2 9 -6 20 -9 11 -3 20 -1 20 4 0 5 -9 9 -20 9 -11 0
-20 -2 -20 -4z"/>
<path d="M2360 549 c0 -5 4 -9 9 -9 5 0 17 -3 27 -7 11 -4 15 -3 11 4 -9 14
-47 24 -47 12z"/>
<path d="M2445 520 c28 -12 37 -12 30 0 -3 6 -16 10 -28 9 -21 0 -21 -1 -2 -9z"/>
<path d="M2523 503 c9 -2 23 -2 30 0 6 3 -1 5 -18 5 -16 0 -22 -2 -12 -5z"/>
<path d="M2603 493 c9 -2 23 -2 30 0 6 3 -1 5 -18 5 -16 0 -22 -2 -12 -5z"/>
<path d="M2680 490 c8 -5 22 -10 30 -10 13 0 13 1 0 10 -8 5 -22 10 -30 10
-13 0 -13 -1 0 -10z"/>
<path d="M2763 483 c9 -2 23 -2 30 0 6 3 -1 5 -18 5 -16 0 -22 -2 -12 -5z"/>
<path d="M2843 483 c9 -2 23 -2 30 0 6 3 -1 5 -18 5 -16 0 -22 -2 -12 -5z"/>
<path d="M2923 473 c9 -2 23 -2 30 0 6 3 -1 5 -18 5 -16 0 -22 -2 -12 -5z"/>
<path d="M325 2510 c-3 -5 1 -10 9 -10 22 0 20 -9 -6 -37 l-21 -23 34 1 c19 1
26 3 16 6 -15 4 -16 7 -2 26 11 15 12 24 3 34 -13 16 -25 17 -33 3z"/>
<path d="M420 2501 c0 -10 7 -21 15 -25 22 -8 18 -24 -7 -29 -20 -4 -19 -4 5
-6 21 -1 27 4 27 19 0 10 -8 24 -17 29 -17 10 -17 10 0 11 10 0 15 5 12 10
-11 17 -35 11 -35 -9z"/>
<path d="M204 2272 c-6 -4 -11 -15 -11 -24 0 -14 8 -18 31 -17 21 1 25 3 11 6
-34 8 -41 23 -12 23 15 0 27 5 27 10 0 12 -30 13 -46 2z"/>
<path d="M200 2205 c-10 -11 -10 -18 -1 -29 10 -12 8 -15 -11 -19 -13 -2 -3
-5 22 -5 32 -1 41 1 30 8 -11 7 -12 10 -2 10 19 0 11 44 -9 48 -9 1 -22 -4
-29 -13z m40 -15 c0 -5 -6 -10 -14 -10 -8 0 -18 5 -21 10 -3 6 3 10 14 10 12
0 21 -4 21 -10z"/>
<path d="M220 2115 c0 -18 -16 -20 -23 -2 -3 7 -6 5 -6 -5 -1 -11 6 -18 18
-18 11 0 22 8 24 18 4 13 5 11 6 -5 0 -13 -3 -23 -9 -23 -5 0 -10 -7 -10 -15
0 -18 -16 -20 -23 -2 -3 7 -6 5 -6 -5 -1 -11 6 -18 18 -18 11 0 22 8 24 18 3
9 5 -3 5 -28 1 -39 -1 -42 -9 -21 -9 23 -11 24 -26 8 -16 -15 -16 -19 -2 -32
9 -9 23 -13 32 -9 24 9 25 154 2 154 -8 0 -15 -7 -15 -15z m0 -115 c0 -5 -2
-10 -4 -10 -3 0 -8 5 -11 10 -3 6 -1 10 4 10 6 0 11 -4 11 -10z"/>
<path d="M325 2100 c-3 -5 1 -10 9 -10 22 0 20 -9 -6 -37 l-21 -23 34 1 c19 1
26 3 16 6 -15 4 -16 7 -2 26 11 15 12 24 3 34 -13 16 -25 17 -33 3z"/>
<path d="M420 2095 c-17 -21 -4 -65 20 -65 23 0 35 33 20 60 -13 24 -23 25
-40 5z m30 -30 c0 -14 -4 -25 -10 -25 -5 0 -10 11 -10 25 0 14 5 25 10 25 6 0
10 -11 10 -25z"/>
<path d="M190 1947 c0 -7 5 -18 12 -25 8 -8 8 -15 -2 -27 -11 -13 -11 -18 2
-31 21 -21 48 -7 47 25 l-1 26 -7 -25 -7 -25 -6 23 c-4 15 -2 25 8 29 8 3 13
15 13 27 -1 17 -2 18 -6 3 -5 -20 -40 -19 -35 1 1 7 -2 12 -8 12 -5 0 -10 -6
-10 -13z m30 -67 c0 -5 -2 -10 -4 -10 -3 0 -8 5 -11 10 -3 6 -1 10 4 10 6 0
11 -4 11 -10z"/>
<path d="M193 1835 c0 -10 10 -15 31 -14 21 1 25 3 11 6 -11 3 -25 9 -31 14
-7 5 -11 3 -11 -6z"/>
<path d="M200 1765 c-11 -13 -11 -18 2 -31 20 -20 50 -7 46 20 -4 26 -30 32
-48 11z m40 -15 c0 -5 -6 -10 -14 -10 -8 0 -18 5 -21 10 -3 6 3 10 14 10 12 0
21 -4 21 -10z"/>
<path d="M241 1712 c-1 -8 -11 -12 -26 -10 -13 2 -24 -1 -24 -7 0 -5 12 -8 27
-7 33 5 36 7 29 24 -4 11 -6 11 -6 0z"/>
<path d="M330 1700 c-10 -6 -11 -10 -2 -10 6 0 12 -11 12 -24 0 -13 -6 -27
-12 -29 -7 -3 1 -6 17 -6 17 0 25 3 18 7 -6 4 -13 22 -15 39 -2 26 -6 31 -18
23z"/>
<path d="M420 1691 c0 -10 7 -21 15 -25 22 -8 18 -24 -7 -29 -20 -4 -19 -4 5
-6 21 -1 27 4 27 19 0 10 -8 24 -17 29 -17 10 -17 10 0 11 10 0 15 5 12 10
-11 17 -35 11 -35 -9z"/>
<path d="M199 1634 c-10 -12 -10 -18 3 -30 21 -21 48 -7 47 25 l-1 26 -8 -25
c-5 -16 -8 -19 -9 -8 -1 24 -17 30 -32 12z m21 -14 c0 -5 -2 -10 -4 -10 -3 0
-8 5 -11 10 -3 6 -1 10 4 10 6 0 11 -4 11 -10z"/>
<path d="M210 1569 c11 -8 12 -12 3 -16 -7 -2 -13 -9 -13 -14 0 -5 11 -3 25 3
29 13 32 23 9 32 -26 10 -41 7 -24 -5z"/>
<path d="M188 1513 c12 -2 32 -2 45 0 12 2 2 4 -23 4 -25 0 -35 -2 -22 -4z"/>
<path d="M241 1492 c-1 -8 -11 -12 -26 -10 -13 2 -24 -1 -24 -7 0 -5 12 -8 27
-7 33 5 36 7 29 24 -4 11 -6 11 -6 0z"/>
<path d="M197 1443 c-11 -10 -8 -33 4 -33 5 0 7 6 3 13 -4 6 2 4 13 -6 21 -19
33 -14 33 15 0 12 -7 18 -23 18 -13 0 -27 -3 -30 -7z m43 -13 c0 -5 -2 -10 -4
-10 -3 0 -8 5 -11 10 -3 6 -1 10 4 10 6 0 11 -4 11 -10z"/>
<path d="M188 1383 c12 -2 32 -2 45 0 12 2 2 4 -23 4 -25 0 -35 -2 -22 -4z"/>
<path d="M199 1354 c-10 -12 -10 -18 3 -30 21 -21 48 -7 47 25 l-1 26 -8 -25
c-5 -16 -8 -19 -9 -8 -1 24 -17 30 -32 12z m21 -14 c0 -5 -2 -10 -4 -10 -3 0
-8 5 -11 10 -3 6 -1 10 4 10 6 0 11 -4 11 -10z"/>
<path d="M193 1295 c0 -10 10 -15 31 -14 21 1 25 3 11 6 -11 3 -25 9 -31 14
-7 5 -11 3 -11 -6z"/>
<path d="M330 1300 c-10 -6 -11 -10 -2 -10 6 0 12 -11 12 -24 0 -13 -6 -27
-12 -29 -7 -3 1 -6 17 -6 17 0 25 3 18 7 -6 4 -13 22 -15 39 -2 26 -6 31 -18
23z"/>
<path d="M420 1295 c-17 -21 -4 -65 20 -65 23 0 35 33 20 60 -13 24 -23 25
-40 5z m30 -30 c0 -14 -4 -25 -10 -25 -5 0 -10 11 -10 25 0 14 5 25 10 25 6 0
10 -11 10 -25z"/>
<path d="M199 1224 c-10 -12 -10 -18 3 -30 21 -21 48 -7 47 25 l-1 26 -8 -25
c-5 -16 -8 -19 -9 -8 -1 24 -17 30 -32 12z m21 -14 c0 -5 -2 -10 -4 -10 -3 0
-8 5 -11 10 -3 6 -1 10 4 10 6 0 11 -4 11 -10z"/>
<path d="M190 1157 c0 -7 6 -19 12 -25 9 -9 10 -15 2 -20 -6 -4 -11 -15 -11
-24 0 -14 8 -18 31 -17 21 1 25 3 11 6 -34 8 -41 23 -12 23 28 0 37 14 15 23
-10 4 -10 6 0 6 6 1 11 11 11 24 -1 17 -2 18 -6 4 -5 -20 -40 -19 -35 1 1 7
-2 12 -8 12 -5 0 -10 -6 -10 -13z"/>
<path d="M199 1044 c-10 -12 -10 -18 3 -30 21 -21 48 -7 47 25 l-1 26 -8 -25
c-5 -16 -8 -19 -9 -8 -1 24 -17 30 -32 12z m21 -14 c0 -5 -2 -10 -4 -10 -3 0
-8 5 -11 10 -3 6 -1 10 4 10 6 0 11 -4 11 -10z"/>
<path d="M193 975 c0 -10 10 -15 31 -14 21 1 25 3 11 6 -11 3 -25 9 -31 14 -7
5 -11 3 -11 -6z"/>
<path d="M199 934 c-10 -12 -10 -18 3 -30 21 -21 48 -7 47 25 l-1 26 -8 -25
c-5 -16 -8 -19 -9 -8 -1 24 -17 30 -32 12z m21 -14 c0 -5 -2 -10 -4 -10 -3 0
-8 5 -11 10 -3 6 -1 10 4 10 6 0 11 -4 11 -10z"/>
<path d="M170 892 c0 -18 26 -28 55 -21 25 5 26 7 7 8 -13 0 -32 6 -43 11 -10
6 -19 7 -19 2z"/>
<path d="M333 892 c-12 -7 -16 -25 -14 -55 2 -30 45 -18 49 14 3 28 -17 52
-35 41z m17 -37 c0 -14 -4 -25 -10 -25 -5 0 -10 11 -10 25 0 14 5 25 10 25 6
0 10 -11 10 -25z"/>
<path d="M420 881 c0 -10 7 -21 15 -25 22 -8 18 -24 -7 -29 -20 -4 -19 -4 5
-6 21 -1 27 4 27 19 0 10 -8 24 -17 29 -17 10 -17 10 0 11 10 0 15 5 12 10
-11 17 -35 11 -35 -9z"/>
<path d="M170 851 c0 -5 5 -13 11 -17 8 -4 7 -9 -2 -15 -9 -6 2 -8 31 -8 41 1
42 2 15 9 l-30 8 30 2 30 2 -31 7 c-17 4 -36 11 -42 15 -7 4 -12 3 -12 -3z"/>
<path d="M180 781 c0 -5 8 -19 18 -31 22 -27 52 -18 52 16 0 21 -5 24 -35 24
-19 0 -35 -4 -35 -9z m60 -21 c0 -5 -6 -10 -14 -10 -8 0 -18 5 -21 10 -3 6 3
10 14 10 12 0 21 -4 21 -10z"/>
<path d="M218 683 c0 -5 -1 -19 -2 -32 -1 -13 -8 -26 -16 -28 -13 -4 -13 -3 0
6 13 9 13 11 -2 11 -23 0 -31 -15 -14 -29 11 -9 18 -8 30 4 9 9 21 13 28 9 10
-6 10 -4 0 8 -9 11 -10 18 -2 23 15 9 12 35 -5 35 -8 0 -16 -3 -17 -7z"/>
<path d="M185 660 c3 -5 11 -10 16 -10 6 0 7 5 4 10 -3 6 -11 10 -16 10 -6 0
-7 -4 -4 -10z"/>
<path d="M333 492 c-12 -7 -16 -25 -14 -55 2 -30 45 -18 49 14 3 28 -17 52
-35 41z m17 -37 c0 -14 -4 -25 -10 -25 -5 0 -10 11 -10 25 0 14 5 25 10 25 6
0 10 -11 10 -25z"/>
<path d="M420 485 c-17 -21 -4 -65 20 -65 23 0 35 33 20 60 -13 24 -23 25 -40
5z m30 -30 c0 -14 -4 -25 -10 -25 -5 0 -10 11 -10 25 0 14 5 25 10 25 6 0 10
-11 10 -25z"/>
<path d="M680 280 c-10 -6 -11 -10 -2 -10 6 0 12 -11 12 -24 0 -13 -6 -27 -12
-29 -7 -3 1 -6 17 -6 17 0 25 3 18 7 -6 4 -13 22 -15 39 -2 26 -6 31 -18 23z"/>
<path d="M875 280 c-3 -5 1 -10 9 -10 20 0 20 -14 1 -30 -23 -19 -18 -30 13
-29 18 1 21 3 9 6 -18 5 -18 6 -1 24 14 15 14 21 4 34 -14 17 -26 19 -35 5z"/>
<path d="M1075 280 c-3 -6 4 -10 17 -10 19 0 20 -2 8 -11 -11 -8 -12 -12 -2
-16 19 -8 14 -21 -10 -26 -20 -4 -19 -4 5 -6 24 -1 27 2 27 33 0 22 -6 36 -16
40 -21 8 -22 8 -29 -4z"/>
<path d="M1292 266 c-24 -31 -22 -41 8 -49 26 -7 30 1 21 43 l-7 34 -22 -28z
m18 -16 c0 -5 -5 -10 -11 -10 -5 0 -7 5 -4 10 3 6 8 10 11 10 2 0 4 -4 4 -10z"/>
<path d="M1487 283 c-12 -12 -7 -33 7 -33 26 0 28 -20 4 -30 l-23 -10 25 3
c33 3 39 34 8 46 -17 7 -19 10 -5 10 9 1 17 6 17 11 0 11 -23 14 -33 3z"/>
<path d="M1696 277 c-25 -19 -17 -61 12 -65 17 -3 22 2 22 18 0 11 -8 24 -17
27 -15 6 -15 7 2 13 11 4 14 9 8 13 -5 3 -18 1 -27 -6z m24 -42 c0 -8 -4 -15
-10 -15 -5 0 -10 7 -10 15 0 8 5 15 10 15 6 0 10 -7 10 -15z"/>
<path d="M1890 280 c0 -5 7 -10 15 -10 12 0 13 -4 5 -19 -16 -30 -11 -49 5
-21 21 36 19 60 -5 60 -11 0 -20 -4 -20 -10z"/>
<path d="M2097 283 c-4 -3 -7 -22 -7 -40 0 -30 3 -34 23 -31 16 2 22 10 22 28
0 38 -21 61 -38 43z m23 -23 c0 -5 -2 -10 -4 -10 -3 0 -8 5 -11 10 -3 6 -1 10
4 10 6 0 11 -4 11 -10z m0 -30 c0 -5 -4 -10 -10 -10 -5 0 -10 5 -10 10 0 6 5
10 10 10 6 0 10 -4 10 -10z"/>
<path d="M2303 283 c-19 -7 -16 -43 4 -50 15 -6 15 -7 -3 -15 -16 -6 -15 -7 6
-5 19 1 26 9 28 28 3 28 -15 49 -35 42z m17 -23 c0 -5 -4 -10 -10 -10 -5 0
-10 5 -10 10 0 6 5 10 10 10 6 0 10 -4 10 -10z"/>
<path d="M2470 279 c-10 -6 -11 -9 -2 -9 6 0 12 -11 12 -24 0 -13 -6 -27 -12
-29 -7 -3 -2 -6 12 -6 24 -1 26 2 22 34 -5 40 -12 48 -32 34z"/>
<path d="M2530 275 c-17 -21 -4 -65 20 -65 23 0 35 33 20 60 -13 24 -23 25
-40 5z m30 -30 c0 -14 -4 -25 -10 -25 -5 0 -10 11 -10 25 0 14 5 25 10 25 6 0
10 -11 10 -25z"/>
<path d="M2740 280 c-10 -6 -11 -10 -2 -10 6 0 12 -11 12 -24 0 -13 -6 -27
-12 -29 -7 -3 1 -6 17 -6 17 0 25 3 18 7 -6 4 -13 22 -15 39 -2 26 -6 31 -18
23z"/>
<path d="M2880 280 c-10 -6 -11 -10 -2 -10 6 0 12 -11 12 -24 0 -13 -6 -27
-12 -29 -7 -3 1 -6 17 -6 17 0 25 3 18 7 -6 4 -13 22 -15 39 -2 26 -6 31 -18
23z"/>
<path d="M2935 281 c-3 -5 4 -11 16 -13 l21 -3 -22 -27 -21 -28 28 1 c22 0 24
2 10 8 -17 6 -17 8 -3 20 20 17 20 37 0 45 -20 8 -22 8 -29 -3z"/>
<path d="M3080 280 c-10 -6 -11 -10 -2 -10 6 0 12 -11 12 -24 0 -13 -6 -27
-12 -29 -7 -3 1 -6 17 -6 17 0 25 3 18 7 -6 4 -13 22 -15 39 -2 26 -6 31 -18
23z"/>
<path d="M3140 280 c-12 -8 -10 -10 10 -10 20 0 22 -2 10 -11 -11 -8 -12 -12
-2 -16 19 -8 14 -21 -10 -26 -19 -4 -18 -4 5 -6 27 -1 28 1 25 36 -3 39 -14
48 -38 33z"/>
<path d="M3352 266 c-24 -31 -22 -41 8 -49 26 -7 30 1 21 43 l-7 34 -22 -28z
m18 -16 c0 -5 -5 -10 -11 -10 -5 0 -7 5 -4 10 3 6 8 10 11 10 2 0 4 -4 4 -10z"/>
<path d="M3490 280 c-10 -6 -11 -10 -2 -10 6 0 12 -11 12 -24 0 -13 -6 -27
-12 -29 -7 -3 1 -6 17 -6 17 0 25 3 18 7 -6 4 -13 22 -15 39 -2 26 -6 31 -18
23z"/>
<path d="M3547 283 c-12 -12 -7 -33 7 -33 26 0 28 -20 4 -30 l-23 -10 25 3
c33 3 39 34 8 46 -17 7 -19 10 -5 10 9 1 17 6 17 11 0 11 -23 14 -33 3z"/>
<path d="M3690 280 c-10 -6 -11 -10 -2 -10 6 0 12 -11 12 -24 0 -13 -6 -27
-12 -29 -7 -3 1 -6 17 -6 17 0 25 3 18 7 -6 4 -13 22 -15 39 -2 26 -6 31 -18
23z"/>
<path d="M3756 277 c-25 -19 -17 -61 12 -65 17 -3 22 2 22 18 0 11 -8 24 -17
27 -15 6 -15 7 2 13 11 4 14 9 8 13 -5 3 -18 1 -27 -6z m24 -42 c0 -8 -4 -15
-10 -15 -5 0 -10 7 -10 15 0 8 5 15 10 15 6 0 10 -7 10 -15z"/>
<path d="M2675 245 c0 -25 4 -35 15 -35 12 0 15 8 12 35 -2 19 -9 35 -16 35
-6 0 -11 -15 -11 -35z"/>
<path d="M3285 245 c0 -25 4 -35 15 -35 12 0 15 8 12 35 -2 19 -9 35 -16 35
-6 0 -11 -15 -11 -35z"/>
<path d="M2243 138 c-23 -11 -33 -58 -13 -58 6 0 10 9 10 19 0 28 18 36 22 9
5 -34 23 -31 22 4 -1 36 -9 41 -41 26z"/>
<path d="M2035 121 c-7 -24 1 -41 20 -41 7 0 16 -6 19 -12 3 -7 4 5 3 27 -2
45 -30 62 -42 26z m35 -17 c0 -14 -12 -19 -23 -8 -9 9 4 35 14 28 5 -3 9 -12
9 -20z"/>
<path d="M2101 113 c-1 -29 2 -33 24 -33 21 0 25 5 24 28 0 26 -1 26 -9 5 -13
-31 -28 -29 -33 5 -4 25 -4 25 -6 -5z"/>
<path d="M2180 131 c12 -9 12 -11 -3 -17 -27 -10 -21 -34 9 -34 22 0 25 4 22
27 -2 19 -10 29 -23 31 -16 2 -17 1 -5 -7z m15 -31 c-3 -5 -11 -10 -16 -10 -6
0 -7 5 -4 10 3 6 11 10 16 10 6 0 7 -4 4 -10z"/>
<path d="M2310 125 c-17 -21 -5 -45 22 -44 21 0 21 1 4 8 -19 7 -19 8 2 13 15
4 22 2 22 -8 0 -8 5 -14 10 -14 6 0 10 8 10 18 0 10 5 23 12 30 15 15 3 16
-22 2 -13 -7 -21 -7 -25 0 -9 14 -21 12 -35 -5z m30 -5 c0 -5 -4 -10 -10 -10
-5 0 -10 5 -10 10 0 6 5 10 10 10 6 0 10 -4 10 -10z"/>
</g>
</svg>
