<?xml version="1.0" standalone="no"?>
<!DOCTYPE svg PUBLIC "-//W3C//DTD SVG 20010904//EN"
 "http://www.w3.org/TR/2001/REC-SVG-20010904/DTD/svg10.dtd">
<svg version="1.0" xmlns="http://www.w3.org/2000/svg"
 width="432.000000pt" height="288.000000pt" viewBox="0 0 432.000000 288.000000"
 preserveAspectRatio="xMidYMid meet">
<metadata>
Created by potrace 1.16, written by Peter Selinger 2001-2019
</metadata>
<g transform="translate(0.000000,288.000000) scale(0.100000,-0.100000)"
fill="#000000" stroke="none">
<path d="M530 2466 c0 -50 -4 -76 -12 -79 -10 -4 -10 -6 0 -6 9 -1 12 -48 12
-200 0 -150 -3 -201 -12 -204 -10 -4 -10 -6 0 -6 18 -1 18 -387 0 -395 -10 -5
-10 -7 0 -12 9 -4 12 -54 12 -199 0 -176 -2 -194 -17 -198 -17 -4 -17 -5 0 -6
16 -1 17 -18 17 -201 0 -153 -3 -200 -12 -200 -10 0 -10 -2 -1 -8 9 -6 13 -62
15 -202 l3 -195 90 -3 c56 -2 92 -7 97 -15 6 -9 8 -9 8 1 0 18 726 18 733 0 4
-10 6 -10 6 0 1 9 82 12 370 12 344 0 370 -1 374 -17 4 -17 5 -17 6 0 1 16 25
17 365 17 282 0 366 -3 370 -12 5 -11 7 -11 12 0 8 18 730 18 737 0 4 -10 6
-10 6 0 1 9 26 12 91 12 l90 0 0 1095 0 1095 -1680 0 -1680 0 0 -74z m3350
-1016 l0 -1080 -1665 0 -1665 0 0 1080 0 1080 1665 0 1665 0 0 -1080z"/>
<path d="M2071 2409 c1 -25 4 -34 6 -21 4 22 5 23 18 5 13 -17 14 -17 21 2 8
19 9 18 15 -5 6 -20 7 -17 8 18 1 49 -3 52 -23 15 -10 -18 -15 -22 -16 -12 0
9 -7 22 -15 29 -13 11 -15 7 -14 -31z"/>
<path d="M2343 2410 c0 -25 2 -35 4 -22 2 12 2 32 0 45 -2 12 -4 2 -4 -23z"/>
<path d="M691 2422 c-11 -20 3 -52 23 -52 7 0 172 -282 367 -627 272 -483 354
-636 354 -662 0 -40 25 -62 52 -45 15 9 83 -20 363 -155 l345 -165 365 -82
c251 -56 364 -85 362 -94 -8 -37 61 -56 73 -20 3 11 12 20 18 20 56 0 664 -73
674 -81 6 -6 21 -8 33 -4 26 8 27 51 0 65 -16 8 -24 6 -41 -11 l-22 -22 -301
33 c-366 39 -399 44 -795 131 -364 80 -352 77 -328 90 21 12 22 42 1 60 -22
18 -49 -1 -49 -33 l1 -25 -91 42 c-374 175 -582 279 -594 295 -7 11 -19 20
-25 20 -20 0 -721 1250 -721 1285 0 17 -4 36 -8 43 -12 18 -45 15 -56 -6z"/>
<path d="M2232 2424 c-19 -13 -26 -13 -38 -3 -12 10 -18 9 -30 -3 -8 -8 -12
-22 -8 -31 7 -20 35 -22 52 -5 9 9 12 9 12 0 0 -7 11 -12 25 -12 22 0 25 4 25
35 0 39 -6 42 -38 19z m-46 -41 c-11 -11 -19 6 -11 24 8 17 8 17 12 0 3 -10 2
-21 -1 -24z m60 0 c-11 -11 -19 6 -11 24 8 17 8 17 12 0 3 -10 2 -21 -1 -24z"/>
<path d="M2287 2424 c-4 -4 -7 -18 -7 -31 0 -19 5 -23 28 -22 l27 1 -25 8
c-25 8 -25 8 -2 9 17 1 22 6 20 18 -3 19 -29 29 -41 17z m28 -14 c3 -5 -1 -10
-10 -10 -9 0 -13 5 -10 10 3 6 8 10 10 10 2 0 7 -4 10 -10z"/>
<path d="M1833 2403 c32 -2 81 -2 110 0 29 2 3 3 -58 3 -60 0 -84 -1 -52 -3z"/>
<path d="M2071 2258 c1 -24 3 -35 6 -25 2 9 11 17 19 17 20 0 17 18 -3 23 -17
4 -17 5 0 6 24 1 22 21 -3 21 -17 0 -20 -6 -19 -42z"/>
<path d="M2612 2260 c0 -25 2 -37 5 -27 5 21 33 23 33 2 0 -8 5 -15 10 -15 6
0 10 16 10 35 0 19 -4 35 -10 35 -5 0 -10 -4 -10 -10 0 -17 -28 -11 -33 8 -3
9 -5 -3 -5 -28z"/>
<path d="M2743 2260 c0 -25 2 -35 4 -22 2 12 2 32 0 45 -2 12 -4 2 -4 -23z"/>
<path d="M3060 2290 c0 -5 -6 -10 -14 -10 -16 0 -31 -34 -21 -50 3 -5 15 -10
26 -10 16 0 19 7 19 40 0 22 -2 40 -5 40 -3 0 -5 -4 -5 -10z m0 -46 c0 -14
-12 -19 -23 -8 -9 9 4 35 14 28 5 -3 9 -12 9 -20z"/>
<path d="M3122 2260 c0 -38 1 -40 7 -16 l6 30 12 -27 c18 -39 33 -33 32 11 -1
26 -3 30 -6 13 l-5 -24 -24 29 -23 29 1 -45z"/>
<path d="M3380 2262 c0 -36 3 -39 25 -39 20 0 23 2 14 13 -9 11 -8 18 2 32 13
15 12 16 -3 3 -16 -12 -18 -11 -18 2 0 9 -4 19 -10 22 -6 4 -10 -9 -10 -33z"/>
<path d="M3478 2275 c-8 -17 -8 -32 -1 -47 9 -20 11 -17 14 25 2 26 3 47 1 47
-1 0 -8 -11 -14 -25z"/>
<path d="M3515 2290 c-3 -5 1 -10 9 -10 20 0 20 -14 1 -30 -23 -19 -18 -30 13
-29 18 1 21 3 9 6 -18 5 -18 6 -1 24 14 15 14 21 4 34 -14 17 -26 19 -35 5z"/>
<path d="M3580 2285 c-17 -21 -4 -65 20 -65 23 0 35 33 20 60 -13 24 -23 25
-40 5z m30 -30 c0 -14 -4 -25 -10 -25 -5 0 -10 11 -10 25 0 14 5 25 10 25 6 0
10 -11 10 -25z"/>
<path d="M3645 2290 c-3 -5 1 -10 9 -10 22 0 20 -9 -6 -37 l-21 -23 34 1 c19
1 26 3 16 6 -15 4 -16 7 -2 26 11 15 12 24 3 34 -13 16 -25 17 -33 3z"/>
<path d="M3710 2289 c-10 -6 -11 -9 -2 -9 6 0 12 -11 12 -24 0 -13 -6 -27 -12
-29 -7 -3 -2 -6 12 -6 24 -1 26 2 22 34 -5 40 -12 48 -32 34z"/>
<path d="M3772 2256 c1 -29 4 -42 9 -34 11 17 11 49 0 67 -6 10 -9 -1 -9 -33z"/>
<path d="M1867 2279 c-24 -14 -22 -56 3 -64 25 -8 50 10 50 36 0 24 -30 40
-53 28z"/>
<path d="M3258 2285 c-2 -3 -3 -18 0 -35 3 -19 10 -30 21 -30 13 0 13 2 2 9
-8 5 -12 18 -8 30 5 20 -5 36 -15 26z"/>
<path d="M2130 2270 c0 -6 6 -8 13 -4 6 4 4 -2 -6 -13 -19 -22 -14 -33 15 -33
15 0 19 6 16 27 -3 27 -38 48 -38 23z m30 -30 c0 -5 -5 -10 -11 -10 -5 0 -7 5
-4 10 3 6 8 10 11 10 2 0 4 -4 4 -10z"/>
<path d="M2197 2273 c-15 -14 -7 -53 11 -54 15 0 14 -2 -3 -10 -18 -8 -18 -8
5 -6 19 1 26 8 28 31 4 33 -22 58 -41 39z m25 -35 c-15 -15 -26 -4 -18 18 5
13 9 15 18 6 9 -9 9 -15 0 -24z"/>
<path d="M2262 2271 c-22 -14 -10 -46 18 -48 23 -2 23 -2 5 6 -18 9 -18 10 -2
10 12 1 17 7 15 18 -4 20 -18 26 -36 14z m23 -11 c3 -5 -1 -10 -10 -10 -9 0
-13 5 -10 10 3 6 8 10 10 10 2 0 7 -4 10 -10z"/>
<path d="M2323 2273 c-15 -6 -18 -53 -3 -53 6 0 10 8 10 18 0 10 5 23 12 30
12 12 3 15 -19 5z"/>
<path d="M2360 2265 c-17 -21 -5 -45 22 -44 21 0 21 1 4 8 -19 7 -18 8 4 14
20 5 21 8 10 21 -16 20 -24 20 -40 1z m30 -5 c0 -5 -4 -10 -10 -10 -5 0 -10 5
-10 10 0 6 5 10 10 10 6 0 10 -4 10 -10z"/>
<path d="M2421 2246 c1 -21 3 -25 6 -11 8 34 23 41 23 12 0 -15 5 -27 10 -27
12 0 13 30 2 46 -4 6 -15 11 -24 11 -14 0 -18 -8 -17 -31z"/>
<path d="M2487 2273 c-15 -14 -7 -53 11 -54 15 0 14 -2 -3 -10 -18 -8 -18 -8
5 -6 19 1 26 8 28 31 4 33 -22 58 -41 39z m25 -35 c-15 -15 -26 -4 -18 18 5
13 9 15 18 6 9 -9 9 -15 0 -24z"/>
<path d="M2684 2266 c-9 -24 3 -46 26 -46 17 0 21 5 18 27 -3 31 -34 44 -44
19z m36 -22 c0 -8 -7 -14 -15 -14 -15 0 -21 21 -9 33 10 9 24 -2 24 -19z"/>
<path d="M2771 2246 c1 -21 3 -25 6 -11 8 34 23 41 23 12 0 -15 5 -27 10 -27
6 0 10 9 10 19 0 30 18 35 23 6 4 -23 4 -23 3 2 -1 25 -5 28 -38 29 -36 1 -38
-1 -37 -30z"/>
<path d="M2909 2278 c0 -2 -3 -15 -5 -30 -4 -24 -1 -28 21 -28 27 0 35 26 13
48 -11 11 -27 16 -29 10z m21 -38 c0 -5 -5 -10 -11 -10 -5 0 -7 5 -4 10 3 6 8
10 11 10 2 0 4 -4 4 -10z"/>
<path d="M2973 2273 c-15 -6 -18 -53 -3 -53 6 0 10 12 10 27 0 29 14 22 23
-12 4 -12 5 -9 4 9 -2 30 -12 38 -34 29z"/>
<path d="M3200 2270 c0 -6 6 -8 13 -5 6 4 4 0 -5 -8 -26 -20 -22 -37 8 -37 22
0 25 4 22 27 -3 27 -38 48 -38 23z m30 -30 c0 -5 -5 -10 -11 -10 -5 0 -7 5 -4
10 3 6 8 10 11 10 2 0 4 -4 4 -10z"/>
<path d="M3295 2259 c8 -26 22 -45 29 -38 2 2 7 15 11 29 7 24 7 24 -9 5 -13
-17 -15 -18 -16 -3 0 9 -5 20 -11 24 -8 4 -9 -1 -4 -17z"/>
<path d="M3352 2245 c0 -16 2 -22 5 -12 2 9 2 23 0 30 -3 6 -5 -1 -5 -18z"/>
<path d="M2540 2219 c0 -5 5 -7 10 -4 6 3 10 8 10 11 0 2 -4 4 -10 4 -5 0 -10
-5 -10 -11z"/>
<path d="M333 2422 c-12 -7 -16 -25 -14 -55 2 -30 45 -18 49 14 3 28 -17 52
-35 41z m17 -37 c0 -14 -4 -25 -10 -25 -5 0 -10 11 -10 25 0 14 5 25 10 25 6
0 10 -11 10 -25z"/>
<path d="M420 2411 c0 -10 7 -21 15 -25 22 -8 18 -24 -7 -29 -20 -4 -19 -4 5
-6 21 -1 27 4 27 19 0 10 -8 24 -17 29 -17 10 -17 10 0 11 10 0 15 5 12 10
-11 17 -35 11 -35 -9z"/>
<path d="M333 2012 c-12 -7 -16 -25 -14 -55 2 -30 45 -18 49 14 3 28 -17 52
-35 41z m17 -37 c0 -14 -4 -25 -10 -25 -5 0 -10 11 -10 25 0 14 5 25 10 25 6
0 10 -11 10 -25z"/>
<path d="M426 1989 c-20 -34 -20 -34 12 -43 23 -8 26 -1 22 39 -3 34 -15 36
-34 4z"/>
<path d="M241 1992 c-1 -8 -11 -12 -26 -10 -13 2 -24 -1 -24 -7 0 -5 12 -8 27
-7 33 5 36 7 29 24 -4 11 -6 11 -6 0z"/>
<path d="M204 1942 c-6 -4 -11 -15 -11 -24 0 -14 8 -18 31 -17 21 1 25 3 11 6
-34 8 -41 23 -12 23 15 0 27 5 27 10 0 12 -30 13 -46 2z"/>
<path d="M200 1875 c-10 -12 -10 -18 -1 -29 8 -10 9 -16 1 -21 -5 -3 -10 -15
-10 -26 0 -16 7 -19 43 -19 23 0 38 4 32 8 -17 12 -36 52 -25 52 5 0 10 12 9
28 l-1 27 -8 -25 c-5 -16 -8 -19 -9 -8 -1 24 -17 30 -31 13z m20 -15 c0 -5 -2
-10 -4 -10 -3 0 -8 5 -11 10 -3 6 -1 10 4 10 6 0 11 -4 11 -10z m15 -51 c10
-15 -1 -23 -20 -15 -9 3 -13 10 -10 16 8 13 22 13 30 -1z"/>
<path d="M220 1755 c0 -18 -16 -20 -23 -2 -3 7 -6 5 -6 -5 -1 -12 6 -18 19
-18 12 0 20 7 21 18 1 11 4 9 9 -8 l8 -25 1 28 c1 18 -4 27 -14 27 -8 0 -15
-7 -15 -15z"/>
<path d="M204 1672 c-6 -4 -11 -15 -11 -24 0 -14 8 -18 31 -17 21 1 25 3 11 6
-34 8 -41 23 -12 23 15 0 27 5 27 10 0 12 -30 13 -46 2z"/>
<path d="M188 1603 c12 -2 32 -2 45 0 12 2 2 4 -23 4 -25 0 -35 -2 -22 -4z"/>
<path d="M333 1602 c-12 -7 -16 -25 -14 -55 2 -30 45 -18 49 14 3 28 -17 52
-35 41z m17 -37 c0 -14 -4 -25 -10 -25 -5 0 -10 11 -10 25 0 14 5 25 10 25 6
0 10 -11 10 -25z"/>
<path d="M420 1600 c-12 -8 -10 -10 10 -10 20 0 22 -2 10 -11 -11 -8 -12 -12
-2 -16 19 -8 14 -21 -10 -26 -19 -4 -18 -4 5 -6 27 -1 28 1 25 36 -3 39 -14
48 -38 33z"/>
<path d="M200 1579 c0 -5 6 -9 13 -9 8 0 7 -4 -3 -10 -12 -8 -13 -11 -1 -19
11 -7 11 -9 0 -13 -8 -3 -12 -8 -9 -10 3 -3 16 -1 30 4 20 7 22 11 10 19 -11
8 -12 12 -2 16 20 8 14 20 -13 25 -14 3 -25 1 -25 -3z"/>
<path d="M210 1460 c13 -9 13 -11 0 -20 -8 -5 -16 -18 -16 -30 -1 -16 4 -20
30 -19 21 1 24 3 11 6 -11 3 -24 9 -29 13 -11 11 32 33 50 26 25 -10 15 10
-11 22 -32 15 -56 16 -35 2z"/>
<path d="M199 1364 c-10 -12 -10 -18 3 -30 21 -21 48 -7 47 25 l-1 26 -8 -25
c-5 -16 -8 -19 -9 -8 -1 24 -17 30 -32 12z m21 -14 c0 -5 -2 -10 -4 -10 -3 0
-8 5 -11 10 -3 6 -1 10 4 10 6 0 11 -4 11 -10z"/>
<path d="M241 1312 c-1 -8 -11 -12 -26 -10 -13 2 -24 -1 -24 -7 0 -5 12 -8 27
-7 33 5 36 7 29 24 -4 11 -6 11 -6 0z"/>
<path d="M241 1272 c-1 -8 -11 -12 -26 -10 -13 2 -24 -1 -24 -7 0 -5 12 -8 27
-7 33 5 36 7 29 24 -4 11 -6 11 -6 0z"/>
<path d="M200 1225 c-11 -13 -11 -18 2 -31 20 -20 50 -7 46 20 -4 26 -30 32
-48 11z m40 -15 c0 -5 -6 -10 -14 -10 -8 0 -18 5 -21 10 -3 6 3 10 14 10 12 0
21 -4 21 -10z"/>
<path d="M333 1202 c-12 -7 -16 -25 -14 -55 2 -30 45 -18 49 14 3 28 -17 52
-35 41z m17 -37 c0 -14 -4 -25 -10 -25 -5 0 -10 11 -10 25 0 14 5 25 10 25 6
0 10 -11 10 -25z"/>
<path d="M419 1199 c-11 -7 -9 -9 9 -9 28 0 28 -8 0 -37 l-21 -23 29 0 c20 0
25 3 15 9 -9 6 -10 11 -2 15 15 10 14 43 -2 49 -8 3 -20 1 -28 -4z"/>
<path d="M188 1163 c12 -2 32 -2 45 0 12 2 2 4 -23 4 -25 0 -35 -2 -22 -4z"/>
<path d="M170 1112 c0 -18 26 -28 55 -21 25 5 26 7 7 8 -13 0 -32 6 -43 11
-10 6 -19 7 -19 2z"/>
<path d="M200 1065 c-11 -13 -11 -18 2 -31 20 -20 50 -7 46 20 -4 26 -30 32
-48 11z m40 -15 c0 -5 -6 -10 -14 -10 -8 0 -18 5 -21 10 -3 6 3 10 14 10 12 0
21 -4 21 -10z"/>
<path d="M218 983 c0 -5 -1 -19 -2 -32 -1 -13 -8 -26 -16 -28 -13 -4 -13 -3 0
6 13 9 13 11 -2 11 -23 0 -31 -15 -14 -29 11 -9 18 -8 30 4 9 9 21 13 28 9 10
-6 10 -4 0 8 -9 11 -10 18 -2 23 15 9 12 35 -5 35 -8 0 -16 -3 -17 -7z"/>
<path d="M185 960 c3 -5 11 -10 16 -10 6 0 7 5 4 10 -3 6 -11 10 -16 10 -6 0
-7 -4 -4 -10z"/>
<path d="M333 792 c-12 -7 -16 -25 -14 -55 2 -30 45 -18 49 14 3 28 -17 52
-35 41z m17 -37 c0 -14 -4 -25 -10 -25 -5 0 -10 11 -10 25 0 14 5 25 10 25 6
0 10 -11 10 -25z"/>
<path d="M425 755 c0 -25 4 -35 15 -35 12 0 15 8 12 35 -2 19 -9 35 -16 35 -6
0 -11 -15 -11 -35z"/>
<path d="M713 282 c-12 -7 -16 -25 -14 -55 2 -30 45 -18 49 14 3 28 -17 52
-35 41z m17 -37 c0 -14 -4 -25 -10 -25 -5 0 -10 11 -10 25 0 14 5 25 10 25 6
0 10 -11 10 -25z"/>
<path d="M1450 279 c-10 -6 -11 -9 -2 -9 6 0 12 -11 12 -24 0 -13 -6 -27 -12
-29 -7 -3 -2 -6 12 -6 24 -1 26 2 22 34 -5 40 -12 48 -32 34z"/>
<path d="M2195 280 c-3 -5 1 -10 9 -10 20 0 20 -14 1 -30 -23 -19 -18 -30 13
-29 18 1 21 3 9 6 -18 5 -18 6 -1 24 14 15 14 21 4 34 -14 17 -26 19 -35 5z"/>
<path d="M2940 280 c-12 -8 -10 -10 10 -10 20 0 22 -2 10 -11 -11 -8 -12 -12
-2 -16 19 -8 14 -21 -10 -26 -19 -4 -18 -4 5 -6 27 -1 28 1 25 36 -3 39 -14
48 -38 33z"/>
<path d="M3706 281 c-3 -5 -3 -17 0 -28 5 -15 4 -15 -5 -3 -8 12 -11 12 -17
-3 -8 -21 -6 -22 24 -31 20 -7 22 -4 22 28 0 34 -13 55 -24 37z"/>
<path d="M2143 121 c-5 -21 -8 -22 -18 -8 -9 13 -11 10 -11 -18 1 -19 4 -35 8
-35 10 0 40 72 33 79 -3 3 -9 -5 -12 -18z"/>
<path d="M2177 134 c-4 -4 -7 -18 -7 -31 0 -19 5 -23 28 -22 l27 1 -25 8 c-25
8 -25 8 -2 9 17 1 22 6 20 18 -3 19 -29 29 -41 17z m28 -14 c3 -5 -1 -10 -10
-10 -9 0 -13 5 -10 10 3 6 8 10 10 10 2 0 7 -4 10 -10z"/>
<path d="M2239 138 c0 -2 -3 -15 -5 -30 -4 -24 -1 -28 21 -28 27 0 35 26 13
48 -11 11 -27 16 -29 10z m21 -38 c0 -5 -5 -10 -11 -10 -5 0 -7 5 -4 10 3 6 8
10 11 10 2 0 4 -4 4 -10z"/>
<path d="M2303 133 c-15 -6 -18 -53 -3 -53 6 0 10 11 10 24 0 13 6 27 13 29 6
3 8 5 2 5 -5 0 -16 -2 -22 -5z"/>
</g>
</svg>
