<?xml version="1.0" standalone="no"?>
<!DOCTYPE svg PUBLIC "-//W3C//DTD SVG 20010904//EN"
 "http://www.w3.org/TR/2001/REC-SVG-20010904/DTD/svg10.dtd">
<svg version="1.0" xmlns="http://www.w3.org/2000/svg"
 width="432.000000pt" height="288.000000pt" viewBox="0 0 432.000000 288.000000"
 preserveAspectRatio="xMidYMid meet">
<metadata>
Created by potrace 1.16, written by Peter Selinger 2001-2019
</metadata>
<g transform="translate(0.000000,288.000000) scale(0.100000,-0.100000)"
fill="#000000" stroke="none">
<path d="M530 2476 c0 -42 -4 -66 -12 -69 -10 -4 -10 -6 0 -6 9 -1 12 -45 12
-185 0 -138 -3 -186 -12 -189 -10 -4 -10 -6 0 -6 18 -1 18 -367 0 -375 -10 -5
-10 -7 0 -12 9 -4 12 -52 12 -189 0 -166 -2 -184 -17 -188 -17 -4 -17 -5 0 -6
15 -1 17 -17 17 -185 0 -138 -3 -186 -12 -190 -10 -5 -10 -7 0 -12 18 -8 18
-374 0 -374 -10 0 -10 -2 -1 -8 6 -4 13 -34 15 -67 l3 -60 75 -3 c44 -2 78 -8
82 -15 6 -9 8 -9 8 1 0 9 66 12 294 12 272 0 295 -1 299 -17 4 -17 5 -17 6 0
1 16 22 17 295 17 226 0 296 -3 299 -12 4 -10 6 -10 6 0 1 18 587 18 595 0 5
-10 7 -10 12 0 8 18 590 18 597 0 4 -10 6 -10 6 0 1 9 67 12 295 12 272 0 295
-1 299 -17 4 -17 5 -17 6 0 1 15 12 17 91 17 l90 0 0 1095 0 1095 -1680 0
-1680 0 0 -64z m3350 -1026 l0 -1080 -1665 0 -1665 0 0 1080 0 1080 1665 0
1665 0 0 -1080z"/>
<path d="M921 2408 c1 -35 2 -38 8 -18 6 23 8 23 14 6 4 -10 10 -16 13 -13 6
5 -23 67 -31 67 -3 0 -5 -19 -4 -42z"/>
<path d="M966 2434 c-7 -19 3 -64 15 -64 12 0 12 67 0 74 -5 3 -12 -1 -15 -10z"/>
<path d="M1100 2440 c0 -5 -6 -10 -14 -10 -8 0 -17 -7 -20 -17 -6 -15 -8 -15
-19 1 -17 23 -49 11 -45 -18 3 -23 48 -37 48 -15 0 10 3 10 12 1 7 -7 20 -12
30 -12 14 0 18 8 18 40 0 22 -2 40 -5 40 -3 0 -5 -4 -5 -10z m-60 -46 c0 -8
-4 -14 -10 -14 -5 0 -10 9 -10 21 0 11 5 17 10 14 6 -3 10 -13 10 -21z m60 0
c0 -14 -12 -19 -23 -8 -9 9 4 35 14 28 5 -3 9 -12 9 -20z"/>
<path d="M1193 2410 c0 -25 2 -35 4 -22 2 12 2 32 0 45 -2 12 -4 2 -4 -23z"/>
<path d="M3677 2434 c-11 -11 -8 -36 6 -53 11 -13 12 -56 1 -256 -36 -658
-121 -1156 -228 -1340 -46 -77 -93 -110 -194 -134 -100 -23 -122 -25 -122 -11
0 5 -9 14 -21 20 -24 14 -49 -2 -49 -31 0 -11 -7 -19 -15 -19 -9 0 -102 -9
-208 -20 -328 -33 -741 -58 -1302 -79 -169 -6 -214 -5 -231 5 -17 12 -23 12
-40 -1 -15 -11 -63 -15 -239 -16 -121 -1 -251 -5 -290 -9 -44 -5 35 -7 217 -7
257 1 289 -1 306 -16 24 -22 38 -21 54 2 12 17 33 19 218 25 113 4 230 9 260
12 50 5 56 3 65 -18 13 -30 50 -36 64 -10 6 11 7 22 4 26 -3 3 0 6 8 6 8 0
122 7 254 15 295 18 273 18 271 -1 0 -9 7 -21 17 -28 22 -14 52 3 52 30 0 16
11 20 80 26 44 4 154 15 245 24 91 9 185 18 210 20 51 3 202 36 272 60 86 28
150 126 203 309 75 262 127 659 156 1185 9 168 15 217 26 225 24 18 12 59 -17
63 -14 2 -29 0 -33 -4z"/>
<path d="M1131 2416 c-18 -21 -2 -46 28 -45 l26 1 -25 7 -25 7 24 7 c21 5 22
8 11 21 -15 20 -24 20 -39 2z m29 -6 c0 -5 -5 -10 -11 -10 -5 0 -7 5 -4 10 3
6 8 10 11 10 2 0 4 -4 4 -10z"/>
<path d="M673 2403 c31 -2 83 -2 115 0 31 2 5 3 -58 3 -63 0 -89 -1 -57 -3z"/>
<path d="M920 2259 c0 -38 1 -40 28 -37 34 4 44 45 16 65 -32 23 -44 16 -44
-28z m45 -4 c0 -11 -8 -21 -17 -23 -14 -3 -18 3 -18 23 0 20 4 26 18 23 9 -2
17 -12 17 -23z"/>
<path d="M1052 2259 c4 -42 23 -49 22 -7 0 18 -6 34 -13 36 -9 3 -11 -6 -9
-29z"/>
<path d="M701 2266 c-16 -20 3 -56 29 -56 26 0 45 36 29 56 -6 8 -19 14 -29
14 -10 0 -23 -6 -29 -14z"/>
<path d="M1000 2270 c0 -6 6 -8 13 -5 6 4 4 0 -5 -8 -26 -20 -22 -37 8 -37 22
0 25 4 22 27 -3 27 -38 48 -38 23z m30 -30 c0 -5 -5 -10 -11 -10 -5 0 -7 5 -4
10 3 6 8 10 11 10 2 0 4 -4 4 -10z"/>
<path d="M1100 2270 c0 -6 6 -8 13 -5 6 4 4 0 -5 -8 -26 -20 -22 -37 8 -37 22
0 25 4 22 27 -3 27 -38 48 -38 23z m30 -30 c0 -5 -5 -10 -11 -10 -5 0 -7 5 -4
10 3 6 8 10 11 10 2 0 4 -4 4 -10z"/>
<path d="M330 2440 c-10 -6 -11 -10 -2 -10 6 0 12 -11 12 -24 0 -13 -6 -27
-12 -29 -7 -3 1 -6 17 -6 17 0 25 3 18 7 -6 4 -13 22 -15 39 -2 26 -6 31 -18
23z"/>
<path d="M420 2435 c-17 -21 -4 -65 20 -65 23 0 35 33 20 60 -13 24 -23 25
-40 5z m30 -30 c0 -14 -4 -25 -10 -25 -5 0 -10 11 -10 25 0 14 5 25 10 25 6 0
10 -11 10 -25z"/>
<path d="M187 2374 c-26 -26 12 -70 45 -53 19 10 25 49 8 49 -5 0 -9 -3 -9 -7
4 -24 -4 -34 -10 -14 -7 25 -22 36 -34 25z"/>
<path d="M180 2292 c0 -19 5 -22 38 -21 26 1 30 3 12 6 -14 2 -31 12 -37 21
-12 14 -13 13 -13 -6z"/>
<path d="M198 2243 c-12 -3 -18 -14 -17 -31 1 -25 1 -25 7 -5 l7 22 11 -23
c10 -21 9 -25 -7 -29 -11 -3 -19 -14 -19 -25 0 -11 -8 -23 -17 -25 -10 -3 7
-5 37 -5 39 0 47 2 26 7 -39 8 -46 31 -11 31 20 0 26 4 22 15 -4 8 -2 17 3 20
14 9 5 50 -11 51 -8 1 -22 0 -31 -3z m33 -26 c-1 -12 -15 -9 -19 4 -3 6 1 10
8 8 6 -3 11 -8 11 -12z"/>
<path d="M181 2078 c-1 -31 25 -40 35 -13 9 23 26 18 19 -6 -5 -15 -4 -19 4
-15 14 9 14 43 0 52 -7 4 -20 -3 -29 -17 l-18 -23 -5 25 c-4 23 -4 23 -6 -3z"/>
<path d="M333 2052 c-12 -7 -16 -25 -14 -55 2 -30 45 -18 49 14 3 28 -17 52
-35 41z m17 -37 c0 -14 -4 -25 -10 -25 -5 0 -10 11 -10 25 0 14 5 25 10 25 6
0 10 -11 10 -25z"/>
<path d="M424 2048 c-16 -23 -11 -62 10 -66 27 -6 37 10 28 43 -9 32 -25 42
-38 23z m26 -12 c0 -3 -4 -8 -10 -11 -5 -3 -10 -1 -10 4 0 6 5 11 10 11 6 0
10 -2 10 -4z m0 -36 c0 -5 -4 -10 -10 -10 -5 0 -10 5 -10 10 0 6 5 10 10 10 6
0 10 -4 10 -10z"/>
<path d="M187 1993 c-4 -3 -7 -14 -7 -24 0 -10 -8 -20 -17 -22 -10 -3 7 -5 37
-5 39 0 47 2 26 7 -38 8 -47 31 -12 31 14 0 26 5 26 10 0 11 -43 14 -53 3z"/>
<path d="M181 1918 c0 -10 -7 -18 -13 -18 -10 0 -10 -2 0 -9 18 -11 74 1 80
17 2 6 -1 12 -7 12 -6 0 -11 -4 -11 -10 0 -17 -38 -11 -43 8 -4 16 -5 16 -6 0z"/>
<path d="M173 1863 c15 -2 39 -2 55 0 15 2 2 4 -28 4 -30 0 -43 -2 -27 -4z"/>
<path d="M198 1843 c-12 -3 -18 -14 -17 -31 l1 -27 8 25 c5 14 8 18 9 9 1 -9
7 -22 15 -28 17 -14 36 6 32 34 -3 21 -18 26 -48 18z m33 -26 c-1 -12 -15 -9
-19 4 -3 6 1 10 8 8 6 -3 11 -8 11 -12z"/>
<path d="M187 1764 c-26 -26 12 -70 45 -53 19 10 25 49 8 49 -5 0 -9 -3 -9 -7
4 -24 -4 -34 -10 -14 -7 25 -22 36 -34 25z"/>
<path d="M196 1675 c17 -13 17 -14 2 -15 -10 0 -18 -3 -18 -6 0 -4 8 -13 18
-20 16 -13 16 -13 0 -14 -10 0 -18 -4 -18 -9 0 -5 15 -5 35 1 34 11 39 28 7
28 -15 1 -14 3 3 16 17 13 18 16 5 24 -8 5 -24 10 -34 10 -20 0 -20 0 0 -15z"/>
<path d="M333 1672 c-12 -7 -16 -25 -14 -55 2 -30 45 -18 49 14 3 28 -17 52
-35 41z m17 -37 c0 -14 -4 -25 -10 -25 -5 0 -10 11 -10 25 0 14 5 25 10 25 6
0 10 -11 10 -25z"/>
<path d="M426 1664 c-18 -17 -19 -24 -10 -48 7 -17 39 -22 48 -7 10 15 -5 41
-23 42 -13 0 -12 2 3 8 13 5 16 10 9 14 -6 4 -19 0 -27 -9z m24 -39 c0 -8 -4
-15 -10 -15 -5 0 -10 7 -10 15 0 8 5 15 10 15 6 0 10 -7 10 -15z"/>
<path d="M150 1550 c0 -5 7 -10 15 -10 8 0 15 -8 15 -19 0 -23 33 -33 56 -17
11 9 14 19 10 34 -6 18 -15 22 -52 22 -24 0 -44 -4 -44 -10z m85 -25 c0 -5
-10 -11 -22 -13 -16 -2 -23 2 -23 13 0 11 7 15 23 13 12 -2 22 -7 22 -13z"/>
<path d="M198 1473 c12 -2 30 -2 40 0 9 3 -1 5 -23 4 -22 0 -30 -2 -17 -4z"/>
<path d="M180 1440 c0 -5 11 -10 25 -10 34 0 32 -28 -2 -33 -27 -4 -26 -4 4
-6 36 -1 47 10 38 39 -4 14 -15 20 -36 20 -16 0 -29 -4 -29 -10z"/>
<path d="M180 1341 c0 -20 6 -30 19 -34 23 -6 51 10 51 28 0 8 5 15 10 15 6 0
10 5 10 10 0 6 -20 10 -45 10 -43 0 -45 -1 -45 -29z m55 -6 c0 -5 -10 -11 -22
-13 -16 -2 -23 2 -23 13 0 11 7 15 23 13 12 -2 22 -7 22 -13z"/>
<path d="M333 1292 c-12 -7 -16 -25 -14 -55 2 -30 45 -18 49 14 3 28 -17 52
-35 41z m17 -37 c0 -14 -4 -25 -10 -25 -5 0 -10 11 -10 25 0 14 5 25 10 25 6
0 10 -11 10 -25z"/>
<path d="M426 1269 c-20 -34 -20 -34 12 -43 23 -8 26 -1 22 39 -3 34 -15 36
-34 4z"/>
<path d="M198 1283 c12 -2 30 -2 40 0 9 3 -1 5 -23 4 -22 0 -30 -2 -17 -4z"/>
<path d="M173 1253 c15 -2 39 -2 55 0 15 2 2 4 -28 4 -30 0 -43 -2 -27 -4z"/>
<path d="M187 1194 c-26 -26 12 -70 45 -53 19 10 25 49 8 49 -5 0 -9 -3 -9 -7
4 -24 -4 -34 -10 -14 -7 25 -22 36 -34 25z"/>
<path d="M180 1112 c0 -5 10 -13 23 -19 l22 -10 -22 -7 c-13 -4 -23 -11 -23
-16 0 -5 14 -3 31 4 38 16 38 28 0 44 -17 6 -31 8 -31 4z"/>
<path d="M198 1033 c12 -2 30 -2 40 0 9 3 -1 5 -23 4 -22 0 -30 -2 -17 -4z"/>
<path d="M181 1008 c0 -10 -7 -18 -13 -18 -10 0 -10 -2 0 -9 18 -11 74 1 80
17 2 6 -1 12 -7 12 -6 0 -11 -4 -11 -10 0 -17 -38 -11 -43 8 -4 16 -5 16 -6 0z"/>
<path d="M198 963 c-12 -3 -18 -14 -17 -31 l1 -27 8 25 c5 14 8 18 9 9 1 -9 7
-22 15 -28 17 -14 36 6 32 34 -3 21 -18 26 -48 18z m33 -26 c-1 -12 -15 -9
-19 4 -3 6 1 10 8 8 6 -3 11 -8 11 -12z"/>
<path d="M333 902 c-12 -7 -16 -25 -14 -55 2 -30 45 -18 49 14 3 28 -17 52
-35 41z m17 -37 c0 -14 -4 -25 -10 -25 -5 0 -10 11 -10 25 0 14 5 25 10 25 6
0 10 -11 10 -25z"/>
<path d="M419 899 c-11 -7 -9 -9 9 -9 28 0 28 -8 0 -37 l-21 -23 29 0 c20 0
25 3 15 9 -9 6 -10 11 -2 15 15 10 14 43 -2 49 -8 3 -20 1 -28 -4z"/>
<path d="M173 883 c15 -2 39 -2 55 0 15 2 2 4 -28 4 -30 0 -43 -2 -27 -4z"/>
<path d="M180 850 c0 -5 11 -10 25 -10 34 0 32 -28 -2 -33 -27 -4 -26 -4 4 -6
36 -1 47 10 38 39 -4 14 -15 20 -36 20 -16 0 -29 -4 -29 -10z"/>
<path d="M187 773 c-4 -3 -7 -26 -7 -50 l0 -43 38 1 c35 1 35 2 8 8 -38 8 -47
31 -12 31 14 0 26 5 26 10 0 6 -11 10 -25 10 -14 0 -25 5 -25 10 0 6 11 10 25
10 14 0 25 5 25 10 0 11 -43 14 -53 3z"/>
<path d="M180 660 c0 -5 11 -10 25 -10 34 0 32 -28 -2 -33 -27 -4 -26 -4 4 -6
36 -1 47 10 38 39 -4 14 -15 20 -36 20 -16 0 -29 -4 -29 -10z"/>
<path d="M158 578 c-10 -24 0 -46 24 -59 25 -13 68 13 68 41 0 30 -18 33 -22
3 -2 -22 -8 -28 -28 -28 -20 0 -26 6 -30 30 -4 24 -7 26 -12 13z"/>
<path d="M333 522 c-12 -7 -16 -25 -14 -55 2 -30 45 -18 49 14 3 28 -17 52
-35 41z m17 -37 c0 -14 -4 -25 -10 -25 -5 0 -10 11 -10 25 0 14 5 25 10 25 6
0 10 -11 10 -25z"/>
<path d="M420 515 c-17 -21 -4 -65 20 -65 23 0 35 33 20 60 -13 24 -23 25 -40
5z m30 -30 c0 -14 -4 -25 -10 -25 -5 0 -10 11 -10 25 0 14 5 25 10 25 6 0 10
-11 10 -25z"/>
<path d="M683 282 c-12 -7 -16 -25 -14 -55 2 -30 45 -18 49 14 3 28 -17 52
-35 41z m17 -37 c0 -14 -4 -25 -10 -25 -5 0 -10 11 -10 25 0 14 5 25 10 25 6
0 10 -11 10 -25z"/>
<path d="M1245 280 c-3 -5 1 -10 9 -10 20 0 20 -14 1 -30 -23 -19 -18 -30 13
-29 18 1 21 3 9 6 -18 5 -18 6 -1 24 14 15 14 21 4 34 -14 17 -26 19 -35 5z"/>
<path d="M1310 275 c-18 -22 -8 -60 15 -60 15 0 21 8 23 31 3 35 -19 52 -38
29z m30 -30 c0 -26 -14 -33 -25 -15 -9 14 1 40 15 40 5 0 10 -11 10 -25z"/>
<path d="M1866 281 c-3 -5 -3 -17 0 -28 5 -15 4 -15 -5 -3 -8 12 -11 12 -17
-3 -8 -21 -6 -22 24 -31 20 -7 22 -4 22 28 0 34 -13 55 -24 37z"/>
<path d="M1910 275 c-17 -21 -4 -65 20 -65 23 0 35 33 20 60 -13 24 -23 25
-40 5z m30 -30 c0 -14 -4 -25 -10 -25 -5 0 -10 11 -10 25 0 14 5 25 10 25 6 0
10 -11 10 -25z"/>
<path d="M2456 274 c-18 -17 -19 -24 -10 -48 7 -17 39 -22 48 -7 10 15 -5 41
-23 42 -13 0 -12 2 3 8 13 5 16 10 9 14 -6 4 -19 0 -27 -9z m24 -39 c0 -8 -4
-15 -10 -15 -5 0 -10 7 -10 15 0 8 5 15 10 15 6 0 10 -7 10 -15z"/>
<path d="M2523 282 c-12 -7 -16 -25 -14 -55 2 -30 45 -18 49 14 3 28 -17 52
-35 41z m17 -37 c0 -14 -4 -25 -10 -25 -5 0 -10 11 -10 25 0 14 5 25 10 25 6
0 10 -11 10 -25z"/>
<path d="M3057 283 c-4 -3 -7 -22 -7 -40 0 -30 3 -34 23 -31 16 2 22 10 22 28
0 38 -21 61 -38 43z m23 -23 c0 -5 -2 -10 -4 -10 -3 0 -8 5 -11 10 -3 6 -1 10
4 10 6 0 11 -4 11 -10z m0 -30 c0 -5 -4 -10 -10 -10 -5 0 -10 5 -10 10 0 6 5
10 10 10 6 0 10 -4 10 -10z"/>
<path d="M3121 280 c-7 -4 -11 -20 -9 -36 2 -21 8 -29 23 -29 15 0 21 8 23 31
3 33 -14 49 -37 34z m27 -32 c-5 -32 -28 -35 -28 -4 0 17 5 26 16 26 10 0 14
-7 12 -22z"/>
<path d="M3630 280 c-10 -6 -11 -10 -2 -10 6 0 12 -11 12 -24 0 -13 -6 -27
-12 -29 -7 -3 1 -6 17 -6 17 0 25 3 18 7 -6 4 -13 22 -15 39 -2 26 -6 31 -18
23z"/>
<path d="M3690 275 c-18 -22 -8 -60 15 -60 15 0 21 8 23 31 3 35 -19 52 -38
29z m30 -30 c0 -26 -14 -33 -25 -15 -9 14 1 40 15 40 5 0 10 -11 10 -25z"/>
<path d="M3750 275 c-17 -21 -4 -65 20 -65 23 0 35 33 20 60 -13 24 -23 25
-40 5z m30 -30 c0 -14 -4 -25 -10 -25 -5 0 -10 11 -10 25 0 14 5 25 10 25 6 0
10 -11 10 -25z"/>
<path d="M1680 105 c0 -25 5 -45 10 -45 6 0 10 20 10 45 0 25 -4 45 -10 45 -5
0 -10 -20 -10 -45z"/>
<path d="M2577 137 c-9 -25 5 -77 22 -76 10 0 11 2 4 6 -17 6 -17 40 -1 45 9
3 8 9 -4 21 -12 12 -17 13 -21 4z"/>
<path d="M2663 105 c0 -27 2 -38 4 -22 2 15 2 37 0 50 -2 12 -4 0 -4 -28z"/>
<path d="M1721 91 c1 -36 1 -36 8 -6 7 36 25 36 29 0 4 -32 22 -33 22 -1 0 27
-17 43 -42 43 -14 0 -18 -8 -17 -36z"/>
<path d="M1800 115 c-20 -24 -8 -50 25 -52 21 -1 23 0 7 4 -17 3 -22 10 -20
26 2 12 9 21 16 20 6 -2 12 2 12 7 0 15 -26 12 -40 -5z"/>
<path d="M1862 114 c-15 -27 -3 -54 24 -54 28 0 42 25 27 49 -14 23 -40 25
-51 5z m38 -25 c0 -20 -15 -26 -25 -9 -9 15 3 43 15 35 5 -3 10 -15 10 -26z"/>
<path d="M1930 93 c0 -18 5 -33 10 -33 6 0 10 11 10 24 0 14 5 28 10 31 6 4
10 -7 10 -24 0 -37 17 -41 22 -6 4 36 22 36 30 0 6 -29 6 -29 5 5 -2 35 -2 35
-49 36 -48 1 -48 1 -48 -33z"/>
<path d="M2051 112 c-14 -26 5 -52 37 -51 21 1 22 2 7 6 -34 8 -41 23 -12 23
29 0 34 9 15 28 -17 17 -36 15 -47 -6z m34 -2 c3 -5 -1 -10 -10 -10 -9 0 -13
5 -10 10 3 6 8 10 10 10 2 0 7 -4 10 -10z"/>
<path d="M2160 86 c0 -25 5 -46 10 -46 6 0 10 4 10 9 0 5 9 11 21 14 16 4 20
12 17 34 -2 22 -9 29 -30 31 -27 3 -28 2 -28 -42z m47 0 c-4 -9 -11 -16 -17
-16 -11 0 -14 33 -3 44 11 10 26 -11 20 -28z"/>
<path d="M2240 115 c-19 -23 -3 -55 28 -54 24 2 24 2 5 6 -31 6 -29 23 2 23
27 0 32 9 13 28 -16 16 -33 15 -48 -3z m35 -5 c3 -5 -1 -10 -10 -10 -9 0 -13
5 -10 10 3 6 8 10 10 10 2 0 7 -4 10 -10z"/>
<path d="M2310 93 c0 -18 5 -33 10 -33 6 0 10 10 10 23 0 13 5 28 11 34 9 9 7
12 -10 10 -17 -1 -21 -8 -21 -34z"/>
<path d="M2364 116 c-11 -28 1 -51 26 -53 25 -3 25 -3 3 7 -13 5 -23 13 -23
18 0 14 26 33 33 25 4 -3 7 -1 7 5 0 17 -40 15 -46 -2z"/>
<path d="M2430 115 c-19 -23 -3 -55 28 -54 24 2 24 2 5 6 -31 6 -29 23 2 23
27 0 32 9 13 28 -16 16 -33 15 -48 -3z m35 -5 c3 -5 -1 -10 -10 -10 -9 0 -13
5 -10 10 3 6 8 10 10 10 2 0 7 -4 10 -10z"/>
<path d="M2500 94 c0 -19 5 -34 10 -34 6 0 10 11 10 24 0 38 18 40 29 4 l10
-33 -2 35 c-2 31 -5 35 -29 36 -25 1 -28 -2 -28 -32z"/>
<path d="M2627 123 c-11 -10 -8 -63 3 -63 6 0 10 16 10 35 0 36 -2 40 -13 28z"/>
<path d="M2691 112 c-14 -26 5 -52 37 -51 21 1 22 2 7 6 -34 8 -41 23 -12 23
29 0 34 9 15 28 -17 17 -36 15 -47 -6z m34 -2 c3 -5 -1 -10 -10 -10 -9 0 -13
5 -10 10 3 6 8 10 10 10 2 0 7 -4 10 -10z"/>
</g>
</svg>
